# This file uses centimeters as units for non-parametric coordinates.

mtllib MOB_Scorpion_Tail.mtl
g default
v -0.000003 0.078023 -0.022876
v -0.000003 0.082902 0.028672
v 0.028159 0.078023 -0.001554
v -0.028164 0.078023 -0.001554
v 0.000000 0.279814 0.045802
v 0.030466 0.302066 0.033838
v 0.000000 0.320999 0.023909
v -0.030466 0.302063 0.033838
v 0.000000 0.210779 -0.011294
v 0.026371 0.217651 -0.040221
v 0.000000 0.223914 -0.065786
v -0.026371 0.217638 -0.040217
v 0.000000 0.110135 0.458586
v 0.036129 0.179798 0.406926
v 0.000000 0.205736 0.426833
v -0.036129 0.179798 0.406926
v 0.000000 0.335292 0.228219
v 0.028161 0.312628 0.216573
v 0.000000 0.287585 0.203704
v -0.028161 0.312626 0.216571
v 0.000000 0.265322 0.333386
v 0.028161 0.244825 0.318247
v 0.000000 0.222177 0.301520
v -0.028161 0.244823 0.318246
v 0.000000 0.274618 0.367277
v 0.057157 0.232214 0.335958
v 0.000000 0.230039 0.427634
v 0.057157 0.187635 0.396315
v 0.000000 0.187050 0.302601
v 0.000000 0.142471 0.362957
v -0.057157 0.232214 0.335958
v -0.057157 0.187635 0.396315
v 0.000000 0.176809 0.423137
vt 0.569044 0.712728
vt 0.554941 0.710314
vt 0.559454 0.694083
vt 0.575280 0.699857
vt 0.706776 0.697422
vt 0.827404 0.705047
vt 0.793891 0.745262
vt 0.568741 0.769434
vt 0.582844 0.769323
vt 0.582771 0.816335
vt 0.568498 0.815697
vt 0.783147 0.072568
vt 0.801055 0.072887
vt 0.798755 0.116532
vt 0.782170 0.115181
vt 0.818900 0.074456
vt 0.815390 0.116932
vt 0.554642 0.769178
vt 0.554220 0.816186
vt 0.822165 0.013150
vt 0.804329 0.010667
vt 0.583174 0.710465
vt 0.786332 0.011264
vt 0.812743 0.193979
vt 0.794883 0.189996
vt 0.568093 0.893275
vt 0.553260 0.890728
vt 0.582952 0.890883
vt 0.776703 0.192079
vt 0.567837 0.942343
vt 0.552476 0.941470
vt 0.809382 0.247454
vt 0.791951 0.245593
vt 0.774422 0.245611
vt 0.583207 0.941630
vt 0.749200 0.857038
vt 0.681235 0.855030
vt 0.674958 0.787377
vt 0.746232 0.779714
vt 0.714918 0.059346
vt 0.758365 0.096987
vt 0.712954 0.136417
vt 0.675730 0.091278
vt 0.695471 0.010430
vt 0.640481 0.040618
vt 0.611726 0.866650
vt 0.605962 0.789962
vt 0.722782 0.886611
vt 0.682587 0.881603
vt 0.726129 0.761890
vt 0.674066 0.769958
vt 0.732509 0.047790
vt 0.758430 0.066126
vt 0.617422 0.135033
vt 0.692700 0.137322
vt 0.724230 0.019120
vt 0.634756 0.060966
vt 0.642698 0.892080
vt 0.622648 0.769373
vt 0.777939 0.795121
vt 0.827799 0.763883
vn 0.000000 -0.995549 0.094241
vn 0.000000 -0.995549 0.094241
vn 0.000000 -0.995549 0.094241
vn 0.000000 -0.995549 0.094241
vn 0.000000 0.469454 0.882957
vn 0.364291 0.326598 0.872139
vn 0.000000 0.334353 0.942448
vn -0.663821 0.138140 -0.735023
vn -0.663823 0.135523 -0.735509
vn -0.606062 0.525229 -0.597347
vn -0.606062 0.525229 -0.597347
vn -0.739796 -0.096924 0.665813
vn -0.740084 -0.087602 0.666785
vn -0.659800 -0.498302 0.562458
vn -0.659800 -0.498302 0.562458
vn 0.740121 -0.087558 0.666749
vn 0.739830 -0.097015 0.665762
vn 0.659895 -0.498277 0.562369
vn 0.659895 -0.498277 0.562369
vn 0.663777 0.135589 -0.735537
vn 0.663775 0.138033 -0.735085
vn 0.605945 0.525314 -0.597391
vn 0.605945 0.525314 -0.597391
vn 0.716846 0.201032 0.667621
vn 0.739830 -0.097015 0.665762
vn 0.740121 -0.087558 0.666749
vn 0.716846 0.201032 0.667621
vn 0.623187 -0.211246 -0.753003
vn 0.663775 0.138033 -0.735085
vn 0.663777 0.135589 -0.735537
vn 0.623187 -0.211246 -0.753003
vn -0.623191 -0.211226 -0.753005
vn -0.623191 -0.211226 -0.753005
vn -0.663823 0.135523 -0.735509
vn -0.663821 0.138140 -0.735023
vn -0.716844 0.201059 0.667616
vn -0.716844 0.201059 0.667615
vn -0.740084 -0.087602 0.666785
vn -0.739796 -0.096924 0.665813
vn 0.626762 -0.777845 0.046107
vn 0.626762 -0.777845 0.046107
vn 0.684796 -0.708955 -0.168633
vn 0.676565 -0.725135 -0.128216
vn 0.577015 0.815268 -0.048919
vn 0.577015 0.815267 -0.048919
vn 0.640006 0.750256 0.165855
vn 0.630211 0.766511 0.123674
vn -0.577060 0.815236 -0.048917
vn -0.577060 0.815236 -0.048917
vn -0.630253 0.766477 0.123667
vn -0.640049 0.750221 0.165850
vn -0.626723 -0.777877 0.046109
vn -0.626723 -0.777877 0.046109
vn -0.676529 -0.725167 -0.128223
vn -0.684760 -0.708989 -0.168640
vn 0.630211 0.766511 0.123674
vn 0.640006 0.750256 0.165855
vn 0.669550 0.618186 0.411763
vn 0.669550 0.618186 0.411763
vn 0.676565 -0.725135 -0.128216
vn 0.684796 -0.708955 -0.168633
vn 0.705685 -0.589232 -0.393465
vn 0.705685 -0.589232 -0.393465
vn -0.684760 -0.708989 -0.168640
vn -0.676529 -0.725167 -0.128223
vn -0.705651 -0.589260 -0.393483
vn -0.705651 -0.589260 -0.393483
vn -0.640049 0.750221 0.165850
vn -0.630253 0.766477 0.123667
vn -0.669589 0.618157 0.411744
vn -0.669589 0.618157 0.411744
vn 0.677976 0.591289 0.436722
vn 0.677976 0.591289 0.436722
vn 0.677976 0.591289 0.436722
vn 0.677975 0.591289 0.436722
vn 0.700777 -0.573830 -0.423828
vn 0.700777 -0.573830 -0.423828
vn 0.700777 -0.573830 -0.423828
vn 0.700777 -0.573830 -0.423828
vn -0.700778 -0.573830 -0.423828
vn -0.700778 -0.573830 -0.423828
vn -0.700778 -0.573830 -0.423828
vn -0.700778 -0.573830 -0.423828
vn -0.677975 0.591289 0.436722
vn -0.677975 0.591289 0.436722
vn -0.677975 0.591289 0.436722
vn -0.677975 0.591289 0.436722
vn 0.495957 0.838743 -0.224804
vn 0.495957 0.838743 -0.224804
vn 0.495957 0.838743 -0.224804
vn 0.495957 0.838743 -0.224804
vn 0.462780 -0.032331 0.885884
vn 0.462780 -0.032331 0.885884
vn 0.462780 -0.032331 0.885884
vn 0.462780 -0.032331 0.885884
vn 0.518722 -0.021383 -0.854676
vn 0.518722 -0.021383 -0.854676
vn 0.518722 -0.021383 -0.854676
vn 0.518722 -0.021383 -0.854676
vn 0.766067 -0.636557 -0.089087
vn 0.766067 -0.636557 -0.089087
vn 0.766067 -0.636557 -0.089087
vn 0.766067 -0.636557 -0.089087
vn -0.518724 -0.021409 -0.854674
vn -0.518724 -0.021409 -0.854674
vn -0.518724 -0.021409 -0.854674
vn -0.518724 -0.021409 -0.854674
vn -0.766067 -0.636557 -0.089087
vn -0.766067 -0.636557 -0.089087
vn -0.766067 -0.636557 -0.089087
vn -0.766067 -0.636557 -0.089087
vn -0.495953 0.838738 -0.224832
vn -0.495953 0.838738 -0.224832
vn -0.495953 0.838738 -0.224832
vn -0.495953 0.838738 -0.224832
vn -0.462781 -0.032330 0.885883
vn -0.462781 -0.032330 0.885883
vn -0.462781 -0.032330 0.885883
vn -0.462781 -0.032330 0.885883
vn 0.000000 0.469454 0.882957
vn 0.000000 0.334353 0.942448
vn -0.364291 0.326598 0.872139
vn 0.000000 0.334353 0.942448
vn 0.364291 0.326598 0.872139
vn 0.000000 -0.126768 0.991932
vn -0.364291 0.326598 0.872139
vn 0.000000 0.334353 0.942448
vn 0.000000 -0.126768 0.991932
s off
g MOB_Scorpion_Tail:Tail
usemtl MOB_Scorpion_Tail:lambert2SG
f 1/1/1 3/2/2 2/3/3 4/4/4
f 13/5/5 14/6/6 33/7/7
f 11/8/8 12/9/9 8/10/10 7/11/11
f 12/12/12 9/13/13 5/14/14 8/15/15
f 9/13/16 10/16/17 6/17/18 5/14/19
f 10/18/20 11/8/21 7/11/22 6/19/23
f 3/20/24 10/16/25 9/13/26 2/21/27
f 1/1/28 11/8/29 10/18/30 3/2/31
f 1/1/32 4/22/33 12/9/34 11/8/35
f 4/23/36 2/21/37 9/13/38 12/12/39
f 5/14/40 6/17/41 18/24/42 19/25/43
f 6/19/44 7/11/45 17/26/46 18/27/47
f 7/11/48 8/10/49 20/28/50 17/26/51
f 8/15/52 5/14/53 19/25/54 20/29/55
f 18/27/56 17/26/57 21/30/58 22/31/59
f 19/25/60 18/24/61 22/32/62 23/33/63
f 20/29/64 19/25/65 23/33/66 24/34/67
f 17/26/68 20/28/69 24/35/70 21/30/71
f 26/36/72 25/37/73 27/38/74 28/39/75
f 29/40/76 26/41/77 28/42/78 30/43/79
f 31/44/80 29/40/81 30/43/82 32/45/83
f 25/37/84 31/46/85 32/47/86 27/38/87
f 22/48/88 21/49/89 25/37/90 26/36/91
f 14/50/92 28/39/93 27/38/94 15/51/95
f 23/52/96 22/53/97 26/41/98 29/40/99
f 13/54/100 30/43/101 28/42/102 14/55/103
f 24/56/104 23/52/105 29/40/106 31/44/107
f 16/57/108 32/45/109 30/43/110 13/54/111
f 21/49/112 24/58/113 31/46/114 25/37/115
f 15/51/116 27/38/117 32/47/118 16/59/119
f 13/5/120 33/7/121 16/60/122
f 33/7/123 14/6/124 15/61/125
f 16/60/126 33/7/127 15/61/128
