# This file uses centimeters as units for non-parametric coordinates.

mtllib renga_wall_01.mtl
g default
v -2.000000 2.556433 0.500000
v 2.000000 2.556433 0.500000
v -2.000000 6.556433 0.500000
v 2.000000 6.556433 0.500000
v -2.000000 6.556433 -0.500000
v 2.000000 6.556433 -0.500000
v -2.000000 2.556433 -0.500000
v 2.000000 2.556433 -0.500000
vt 0.648405 1.308113
vt 2.484665 -1.665283
vt -1.043204 1.630876
vt -1.101034 3.983335
vt -2.071618 -1.710246
vt 3.481160 2.359708
vt -1.043204 3.088540
vt 2.473119 0.956494
vt -1.043204 3.817373
vt 3.481160 3.817373
vt 0.660576 1.308113
vt 0.660576 3.983335
vt -1.113205 1.308113
vt -1.113205 3.983335
vt 3.481160 3.088540
vt -1.101034 1.308113
vt -2.083282 0.938258
vt -2.071736 -1.683519
vt 2.484783 -1.692010
vt -1.043204 2.359708
vt 2.473001 0.983221
vt 3.481160 1.630876
vt -2.083400 0.964985
vt 0.648405 3.983335
vn 0.000000 0.000000 1.000000
vn 0.000000 0.000000 1.000000
vn 0.000000 0.000000 1.000000
vn 0.000000 0.000000 1.000000
vn 0.000000 1.000000 0.000000
vn 0.000000 1.000000 0.000000
vn 0.000000 1.000000 0.000000
vn 0.000000 1.000000 0.000000
vn 0.000000 0.000000 -1.000000
vn 0.000000 0.000000 -1.000000
vn 0.000000 0.000000 -1.000000
vn 0.000000 0.000000 -1.000000
vn 0.000000 -1.000000 0.000000
vn 0.000000 -1.000000 0.000000
vn 0.000000 -1.000000 0.000000
vn 0.000000 -1.000000 0.000000
vn 1.000000 0.000000 0.000000
vn 1.000000 0.000000 0.000000
vn 1.000000 0.000000 0.000000
vn 1.000000 0.000000 0.000000
vn -1.000000 0.000000 0.000000
vn -1.000000 0.000000 0.000000
vn -1.000000 0.000000 0.000000
vn -1.000000 0.000000 0.000000
s off
g pCube1
usemtl lambert2SG
f 1/18/1 2/2/2 4/21/3 3/23/4
f 3/3/5 4/22/6 6/6/7 5/20/8
f 5/5/9 6/19/10 8/8/11 7/17/12
f 7/7/13 8/15/14 2/10/15 1/9/16
f 2/16/17 8/11/18 6/12/19 4/4/20
f 7/13/21 1/1/22 3/24/23 5/14/24
