# This file uses centimeters as units for non-parametric coordinates.

mtllib cardboard2.mtl
g default
v -0.500000 -0.500000 0.062500
v 0.500000 -0.500000 0.062500
v -0.500000 0.500000 0.062500
v 0.500000 0.500000 0.062500
v -0.500000 0.500000 -0.062500
v 0.500000 0.500000 -0.062500
v -0.500000 -0.500000 -0.062500
v 0.500000 -0.500000 -0.062500
vt 3.811108 0.995994
vt 0.859707 0.174447
vt 0.137796 0.012796
vt 3.821380 0.993338
vt 0.142790 0.267790
vt 0.862203 0.737203
vt 0.143494 0.236704
vt 0.857210 0.982210
vt 0.143494 0.949715
vt 0.856506 0.949715
vt -2.821683 0.011847
vt 3.803957 0.009259
vt 3.831492 0.005876
vt -2.820206 0.002696
vt 0.856506 0.236704
vt -2.804260 0.995926
vt 0.142790 0.982210
vt 0.140293 0.174447
vt 0.857210 0.267790
vt 0.137796 0.737203
vt 0.859707 0.893860
vt 0.862203 0.012796
vt 0.140293 0.893860
vt -2.840590 0.992814
vn 0.000000 0.000000 1.000000
vn 0.000000 0.000000 1.000000
vn 0.000000 0.000000 1.000000
vn 0.000000 0.000000 1.000000
vn 0.000000 1.000000 0.000000
vn 0.000000 1.000000 0.000000
vn 0.000000 1.000000 0.000000
vn 0.000000 1.000000 0.000000
vn 0.000000 0.000000 -1.000000
vn 0.000000 0.000000 -1.000000
vn 0.000000 0.000000 -1.000000
vn 0.000000 0.000000 -1.000000
vn 0.000000 -1.000000 0.000000
vn 0.000000 -1.000000 0.000000
vn 0.000000 -1.000000 0.000000
vn 0.000000 -1.000000 0.000000
vn 1.000000 0.000000 0.000000
vn 1.000000 0.000000 0.000000
vn 1.000000 0.000000 0.000000
vn 1.000000 0.000000 0.000000
vn -1.000000 0.000000 0.000000
vn -1.000000 0.000000 0.000000
vn -1.000000 0.000000 0.000000
vn -1.000000 0.000000 0.000000
s off
g pCube1
usemtl lambert3SG
f 1/18/1 2/2/2 4/21/3 3/23/4
f 3/3/5 4/22/6 6/6/7 5/20/8
f 5/5/9 6/19/10 8/8/11 7/17/12
f 7/7/13 8/15/14 2/10/15 1/9/16
usemtl lambert2SG
f 2/16/17 8/11/18 6/12/19 4/4/20
f 7/13/21 1/1/22 3/24/23 5/14/24
