# This file uses centimeters as units for non-parametric coordinates.

mtllib konntena.mtl
g default
v -1.910965 0.006558 3.911589
v 1.910965 0.006558 3.911590
v -1.910965 4.106558 3.911589
v 1.910965 4.106558 3.911590
v -1.910965 4.106558 -3.911589
v 1.910965 4.106558 -3.911590
v -1.910965 0.006558 -3.911589
v 1.910965 0.006558 -3.911590
vt -5.578066 0.008080
vt 6.484911 0.008080
vt 6.484911 0.999532
vt -5.578066 0.999532
vt -5.511409 0.038297
vt 6.459382 0.038297
vt 6.459382 1.009625
vt -5.511409 1.009625
vt 0.338705 0.001992
vt 0.668185 0.001992
vt 0.668185 0.331472
vt 0.338705 0.331472
vt 0.282357 0.335260
vt 0.611837 0.335260
vt 0.611837 0.664740
vt 0.282357 0.664740
vt -2.925616 0.153029
vt 3.872842 0.153029
vt 3.872842 0.989703
vt -2.925616 0.989703
vt -2.900883 0.093522
vt 3.886162 0.093522
vt 3.886162 0.906478
vt -2.900883 0.906478
vn -0.000000 0.000000 1.000000
vn -0.000000 0.000000 1.000000
vn -0.000000 0.000000 1.000000
vn -0.000000 0.000000 1.000000
vn 0.000000 1.000000 0.000000
vn 0.000000 1.000000 0.000000
vn 0.000000 1.000000 0.000000
vn 0.000000 1.000000 0.000000
vn -0.000000 0.000000 -1.000000
vn -0.000000 0.000000 -1.000000
vn -0.000000 0.000000 -1.000000
vn -0.000000 0.000000 -1.000000
vn 0.000000 -1.000000 0.000000
vn 0.000000 -1.000000 0.000000
vn 0.000000 -1.000000 0.000000
vn 0.000000 -1.000000 0.000000
vn 1.000000 0.000000 0.000000
vn 1.000000 0.000000 0.000000
vn 1.000000 0.000000 0.000000
vn 1.000000 0.000000 0.000000
vn -1.000000 0.000000 0.000000
vn -1.000000 0.000000 0.000000
vn -1.000000 0.000000 0.000000
vn -1.000000 0.000000 0.000000
s off
g pCube1
usemtl lambert2SG
f 1/17/1 2/18/2 4/19/3 3/20/4
f 3/9/5 4/10/6 6/11/7 5/12/8
f 5/21/9 6/22/10 8/23/11 7/24/12
f 7/13/13 8/14/14 2/15/15 1/16/16
f 2/1/17 8/2/18 6/3/19 4/4/20
f 7/5/21 1/6/22 3/7/23 5/8/24
g default
v -2.000000 0.010749 4.000000
v 2.000000 0.010749 4.000000
v -2.000000 0.218005 4.000000
v 2.000000 0.218005 4.000000
v -2.000000 0.218005 -4.000000
v 2.000000 0.218005 -4.000000
v -2.000000 0.010749 -4.000000
v 2.000000 0.010749 -4.000000
vt 0.384657 0.401873
vt 0.459887 0.401873
vt 0.384657 0.450937
vt 0.459887 0.450937
vt 0.384657 0.500000
vt 0.459887 0.500000
vt 0.384657 0.549063
vt 0.459887 0.549063
vt 0.384657 0.598127
vt 0.459887 0.598127
vt 0.535118 0.401873
vt 0.535118 0.450937
vt 0.309427 0.401873
vt 0.309427 0.450937
vn 0.000000 0.000000 1.000000
vn 0.000000 0.000000 1.000000
vn 0.000000 0.000000 1.000000
vn 0.000000 0.000000 1.000000
vn 0.000000 1.000000 0.000000
vn 0.000000 1.000000 0.000000
vn 0.000000 1.000000 0.000000
vn 0.000000 1.000000 0.000000
vn 0.000000 0.000000 -1.000000
vn 0.000000 0.000000 -1.000000
vn 0.000000 0.000000 -1.000000
vn 0.000000 0.000000 -1.000000
vn 0.000000 -1.000000 0.000000
vn 0.000000 -1.000000 0.000000
vn 0.000000 -1.000000 0.000000
vn 0.000000 -1.000000 0.000000
vn 1.000000 0.000000 0.000000
vn 1.000000 0.000000 0.000000
vn 1.000000 0.000000 0.000000
vn 1.000000 0.000000 0.000000
vn -1.000000 0.000000 0.000000
vn -1.000000 0.000000 0.000000
vn -1.000000 0.000000 0.000000
vn -1.000000 0.000000 0.000000
s off
g pCube2
usemtl initialShadingGroup
f 9/25/25 10/26/26 12/28/27 11/27/28
f 11/27/29 12/28/30 14/30/31 13/29/32
f 13/29/33 14/30/34 16/32/35 15/31/36
f 15/31/37 16/32/38 10/34/39 9/33/40
f 10/26/41 16/35/42 14/36/43 12/28/44
f 15/37/45 9/25/46 11/27/47 13/38/48
g default
v -2.000000 3.949308 4.000000
v 2.000000 3.949308 4.000000
v -2.000000 4.156563 4.000000
v 2.000000 4.156563 4.000000
v -2.000000 4.156563 -4.000000
v 2.000000 4.156563 -4.000000
v -2.000000 3.949308 -4.000000
v 2.000000 3.949308 -4.000000
vt 0.384657 0.401873
vt 0.459887 0.401873
vt 0.384657 0.450937
vt 0.459887 0.450937
vt 0.384657 0.500000
vt 0.459887 0.500000
vt 0.384657 0.549063
vt 0.459887 0.549063
vt 0.384657 0.598127
vt 0.459887 0.598127
vt 0.535118 0.401873
vt 0.535118 0.450937
vt 0.309427 0.401873
vt 0.309427 0.450937
vn 0.000000 0.000000 1.000000
vn 0.000000 0.000000 1.000000
vn 0.000000 0.000000 1.000000
vn 0.000000 0.000000 1.000000
vn 0.000000 1.000000 0.000000
vn 0.000000 1.000000 0.000000
vn 0.000000 1.000000 0.000000
vn 0.000000 1.000000 0.000000
vn 0.000000 0.000000 -1.000000
vn 0.000000 0.000000 -1.000000
vn 0.000000 0.000000 -1.000000
vn 0.000000 0.000000 -1.000000
vn 0.000000 -1.000000 0.000000
vn 0.000000 -1.000000 0.000000
vn 0.000000 -1.000000 0.000000
vn 0.000000 -1.000000 0.000000
vn 1.000000 0.000000 0.000000
vn 1.000000 0.000000 0.000000
vn 1.000000 0.000000 0.000000
vn 1.000000 0.000000 0.000000
vn -1.000000 0.000000 0.000000
vn -1.000000 0.000000 0.000000
vn -1.000000 0.000000 0.000000
vn -1.000000 0.000000 0.000000
s off
g pCube3
usemtl initialShadingGroup
f 17/39/49 18/40/50 20/42/51 19/41/52
f 19/41/53 20/42/54 22/44/55 21/43/56
f 21/43/57 22/44/58 24/46/59 23/45/60
f 23/45/61 24/46/62 18/48/63 17/47/64
f 18/40/65 24/49/66 22/50/67 20/42/68
f 23/51/69 17/39/70 19/41/71 21/52/72
g default
v -1.960965 0.181089 3.961590
v -1.860965 0.181089 3.961590
v -1.960965 4.054872 3.961590
v -1.860965 4.054872 3.961590
v -1.960965 4.054872 3.861590
v -1.860965 4.054872 3.861590
v -1.960965 0.181089 3.861590
v -1.860965 0.181089 3.861590
vt 0.384657 0.401873
vt 0.459887 0.401873
vt 0.384657 0.450937
vt 0.459887 0.450937
vt 0.384657 0.500000
vt 0.459887 0.500000
vt 0.384657 0.549063
vt 0.459887 0.549063
vt 0.384657 0.598127
vt 0.459887 0.598127
vt 0.535118 0.401873
vt 0.535118 0.450937
vt 0.309427 0.401873
vt 0.309427 0.450937
vn 0.000000 0.000000 1.000000
vn 0.000000 0.000000 1.000000
vn 0.000000 0.000000 1.000000
vn 0.000000 0.000000 1.000000
vn 0.000000 1.000000 0.000000
vn 0.000000 1.000000 0.000000
vn 0.000000 1.000000 0.000000
vn 0.000000 1.000000 0.000000
vn 0.000000 0.000000 -1.000000
vn 0.000000 0.000000 -1.000000
vn 0.000000 0.000000 -1.000000
vn 0.000000 0.000000 -1.000000
vn 0.000000 -1.000000 0.000000
vn 0.000000 -1.000000 0.000000
vn 0.000000 -1.000000 0.000000
vn 0.000000 -1.000000 0.000000
vn 1.000000 0.000000 0.000000
vn 1.000000 0.000000 0.000000
vn 1.000000 0.000000 0.000000
vn 1.000000 0.000000 0.000000
vn -1.000000 0.000000 0.000000
vn -1.000000 0.000000 0.000000
vn -1.000000 0.000000 0.000000
vn -1.000000 0.000000 0.000000
s off
g pCube4
usemtl initialShadingGroup
f 25/53/73 26/54/74 28/56/75 27/55/76
f 27/55/77 28/56/78 30/58/79 29/57/80
f 29/57/81 30/58/82 32/60/83 31/59/84
f 31/59/85 32/60/86 26/62/87 25/61/88
f 26/54/89 32/63/90 30/64/91 28/56/92
f 31/65/93 25/53/94 27/55/95 29/66/96
g default
v 1.860965 0.181089 3.961590
v 1.960965 0.181089 3.961590
v 1.860965 4.054872 3.961590
v 1.960965 4.054872 3.961590
v 1.860965 4.054872 3.861590
v 1.960965 4.054872 3.861590
v 1.860965 0.181089 3.861590
v 1.960965 0.181089 3.861590
vt 0.384657 0.401873
vt 0.459887 0.401873
vt 0.384657 0.450937
vt 0.459887 0.450937
vt 0.384657 0.500000
vt 0.459887 0.500000
vt 0.384657 0.549063
vt 0.459887 0.549063
vt 0.384657 0.598127
vt 0.459887 0.598127
vt 0.535118 0.401873
vt 0.535118 0.450937
vt 0.309427 0.401873
vt 0.309427 0.450937
vn 0.000000 0.000000 1.000000
vn 0.000000 0.000000 1.000000
vn 0.000000 0.000000 1.000000
vn 0.000000 0.000000 1.000000
vn 0.000000 1.000000 0.000000
vn 0.000000 1.000000 0.000000
vn 0.000000 1.000000 0.000000
vn 0.000000 1.000000 0.000000
vn 0.000000 0.000000 -1.000000
vn 0.000000 0.000000 -1.000000
vn 0.000000 0.000000 -1.000000
vn 0.000000 0.000000 -1.000000
vn 0.000000 -1.000000 0.000000
vn 0.000000 -1.000000 0.000000
vn 0.000000 -1.000000 0.000000
vn 0.000000 -1.000000 0.000000
vn 1.000000 0.000000 0.000000
vn 1.000000 0.000000 0.000000
vn 1.000000 0.000000 0.000000
vn 1.000000 0.000000 0.000000
vn -1.000000 0.000000 0.000000
vn -1.000000 0.000000 0.000000
vn -1.000000 0.000000 0.000000
vn -1.000000 0.000000 0.000000
s off
g pCube5
usemtl initialShadingGroup
f 33/67/97 34/68/98 36/70/99 35/69/100
f 35/69/101 36/70/102 38/72/103 37/71/104
f 37/71/105 38/72/106 40/74/107 39/73/108
f 39/73/109 40/74/110 34/76/111 33/75/112
f 34/68/113 40/77/114 38/78/115 36/70/116
f 39/79/117 33/67/118 35/69/119 37/80/120
g default
v -1.960965 0.181089 -3.878073
v -1.860965 0.181089 -3.878073
v -1.960965 4.054872 -3.878073
v -1.860965 4.054872 -3.878073
v -1.960965 4.054872 -3.978073
v -1.860965 4.054872 -3.978073
v -1.960965 0.181089 -3.978073
v -1.860965 0.181089 -3.978073
vt 0.384657 0.401873
vt 0.459887 0.401873
vt 0.384657 0.450937
vt 0.459887 0.450937
vt 0.384657 0.500000
vt 0.459887 0.500000
vt 0.384657 0.549063
vt 0.459887 0.549063
vt 0.384657 0.598127
vt 0.459887 0.598127
vt 0.535118 0.401873
vt 0.535118 0.450937
vt 0.309427 0.401873
vt 0.309427 0.450937
vn 0.000000 0.000000 1.000000
vn 0.000000 0.000000 1.000000
vn 0.000000 0.000000 1.000000
vn 0.000000 0.000000 1.000000
vn 0.000000 1.000000 0.000000
vn 0.000000 1.000000 0.000000
vn 0.000000 1.000000 0.000000
vn 0.000000 1.000000 0.000000
vn 0.000000 0.000000 -1.000000
vn 0.000000 0.000000 -1.000000
vn 0.000000 0.000000 -1.000000
vn 0.000000 0.000000 -1.000000
vn 0.000000 -1.000000 0.000000
vn 0.000000 -1.000000 0.000000
vn 0.000000 -1.000000 0.000000
vn 0.000000 -1.000000 0.000000
vn 1.000000 0.000000 0.000000
vn 1.000000 0.000000 0.000000
vn 1.000000 0.000000 0.000000
vn 1.000000 0.000000 0.000000
vn -1.000000 0.000000 0.000000
vn -1.000000 0.000000 0.000000
vn -1.000000 0.000000 0.000000
vn -1.000000 0.000000 0.000000
s off
g pCube6
usemtl initialShadingGroup
f 41/81/121 42/82/122 44/84/123 43/83/124
f 43/83/125 44/84/126 46/86/127 45/85/128
f 45/85/129 46/86/130 48/88/131 47/87/132
f 47/87/133 48/88/134 42/90/135 41/89/136
f 42/82/137 48/91/138 46/92/139 44/84/140
f 47/93/141 41/81/142 43/83/143 45/94/144
g default
v 1.860965 0.181089 -3.878073
v 1.960965 0.181089 -3.878073
v 1.860965 4.054872 -3.878073
v 1.960965 4.054872 -3.878073
v 1.860965 4.054872 -3.978073
v 1.960965 4.054872 -3.978073
v 1.860965 0.181089 -3.978073
v 1.960965 0.181089 -3.978073
vt 0.384657 0.401873
vt 0.459887 0.401873
vt 0.384657 0.450937
vt 0.459887 0.450937
vt 0.384657 0.500000
vt 0.459887 0.500000
vt 0.384657 0.549063
vt 0.459887 0.549063
vt 0.384657 0.598127
vt 0.459887 0.598127
vt 0.535118 0.401873
vt 0.535118 0.450937
vt 0.309427 0.401873
vt 0.309427 0.450937
vn 0.000000 0.000000 1.000000
vn 0.000000 0.000000 1.000000
vn 0.000000 0.000000 1.000000
vn 0.000000 0.000000 1.000000
vn 0.000000 1.000000 0.000000
vn 0.000000 1.000000 0.000000
vn 0.000000 1.000000 0.000000
vn 0.000000 1.000000 0.000000
vn 0.000000 0.000000 -1.000000
vn 0.000000 0.000000 -1.000000
vn 0.000000 0.000000 -1.000000
vn 0.000000 0.000000 -1.000000
vn 0.000000 -1.000000 0.000000
vn 0.000000 -1.000000 0.000000
vn 0.000000 -1.000000 0.000000
vn 0.000000 -1.000000 0.000000
vn 1.000000 0.000000 0.000000
vn 1.000000 0.000000 0.000000
vn 1.000000 0.000000 0.000000
vn 1.000000 0.000000 0.000000
vn -1.000000 0.000000 0.000000
vn -1.000000 0.000000 0.000000
vn -1.000000 0.000000 0.000000
vn -1.000000 0.000000 0.000000
s off
g pCube7
usemtl initialShadingGroup
f 49/95/145 50/96/146 52/98/147 51/97/148
f 51/97/149 52/98/150 54/100/151 53/99/152
f 53/99/153 54/100/154 56/102/155 55/101/156
f 55/101/157 56/102/158 50/104/159 49/103/160
f 50/96/161 56/105/162 54/106/163 52/98/164
f 55/107/165 49/95/166 51/97/167 53/108/168
