# This file uses centimeters as units for non-parametric coordinates.

mtllib signboard_06.mtl
g default
v -0.800000 0.550000 0.000000
v 0.800000 0.550000 0.000000
v -0.800000 1.450000 0.000000
v 0.800000 1.450000 0.000000
vt 0.000000 0.000000
vt -1.000000 0.000000
vt -1.000000 1.000000
vt 0.000000 1.000000
vn 0.000000 0.000000 1.000000
vn 0.000000 0.000000 1.000000
vn 0.000000 0.000000 1.000000
vn 0.000000 0.000000 1.000000
s off
g signboard_06:pPlane1group1
usemtl signboard_06:lambert3SG
f 1/1/1 2/2/2 4/3/3 3/4/4
g default
v -0.974588 0.000000 0.100000
v -0.774588 0.000000 0.100000
v -0.974588 1.500000 0.100000
v -0.774588 1.500000 0.100000
v -0.974588 1.500000 -0.100000
v -0.774588 1.500000 -0.100000
v -0.974588 0.000000 -0.100000
v -0.774588 0.000000 -0.100000
vt 0.375000 0.000000
vt 0.625000 0.000000
vt 0.625000 0.250000
vt 0.375000 0.250000
vt 0.625000 0.500000
vt 0.375000 0.500000
vt 0.625000 0.750000
vt 0.375000 0.750000
vt 0.625000 1.000000
vt 0.375000 1.000000
vt 0.875000 0.000000
vt 0.875000 0.250000
vt 0.125000 0.000000
vt 0.125000 0.250000
vn 0.000000 0.000000 1.000000
vn 0.000000 0.000000 1.000000
vn 0.000000 0.000000 1.000000
vn 0.000000 0.000000 1.000000
vn 0.000000 1.000000 0.000000
vn 0.000000 1.000000 0.000000
vn 0.000000 1.000000 0.000000
vn 0.000000 1.000000 0.000000
vn 0.000000 0.000000 -1.000000
vn 0.000000 0.000000 -1.000000
vn 0.000000 0.000000 -1.000000
vn 0.000000 0.000000 -1.000000
vn 0.000000 -1.000000 0.000000
vn 0.000000 -1.000000 0.000000
vn 0.000000 -1.000000 0.000000
vn 0.000000 -1.000000 0.000000
vn 1.000000 0.000000 0.000000
vn 1.000000 0.000000 0.000000
vn 1.000000 0.000000 0.000000
vn 1.000000 0.000000 0.000000
vn -1.000000 0.000000 0.000000
vn -1.000000 0.000000 0.000000
vn -1.000000 0.000000 0.000000
vn -1.000000 0.000000 0.000000
s off
g signboard_06:group1pCube1
usemtl signboard_06:lambert2SG
f 5/5/5 6/6/6 8/7/7 7/8/8
f 7/8/9 8/7/10 10/9/11 9/10/12
f 9/10/13 10/9/14 12/11/15 11/12/16
f 11/12/17 12/11/18 6/13/19 5/14/20
f 6/6/21 12/15/22 10/16/23 8/7/24
f 11/17/25 5/5/26 7/8/27 9/18/28
g default
v 0.748788 0.000000 0.100000
v 0.948788 0.000000 0.100000
v 0.748788 1.500000 0.100000
v 0.948788 1.500000 0.100000
v 0.748788 1.500000 -0.100000
v 0.948788 1.500000 -0.100000
v 0.748788 0.000000 -0.100000
v 0.948788 0.000000 -0.100000
vt 0.375000 0.000000
vt 0.625000 0.000000
vt 0.625000 0.250000
vt 0.375000 0.250000
vt 0.625000 0.500000
vt 0.375000 0.500000
vt 0.625000 0.750000
vt 0.375000 0.750000
vt 0.625000 1.000000
vt 0.375000 1.000000
vt 0.875000 0.000000
vt 0.875000 0.250000
vt 0.125000 0.000000
vt 0.125000 0.250000
vn 0.000000 0.000000 1.000000
vn 0.000000 0.000000 1.000000
vn 0.000000 0.000000 1.000000
vn 0.000000 0.000000 1.000000
vn 0.000000 1.000000 0.000000
vn 0.000000 1.000000 0.000000
vn 0.000000 1.000000 0.000000
vn 0.000000 1.000000 0.000000
vn 0.000000 0.000000 -1.000000
vn 0.000000 0.000000 -1.000000
vn 0.000000 0.000000 -1.000000
vn 0.000000 0.000000 -1.000000
vn 0.000000 -1.000000 0.000000
vn 0.000000 -1.000000 0.000000
vn 0.000000 -1.000000 0.000000
vn 0.000000 -1.000000 0.000000
vn 1.000000 0.000000 0.000000
vn 1.000000 0.000000 0.000000
vn 1.000000 0.000000 0.000000
vn 1.000000 0.000000 0.000000
vn -1.000000 0.000000 0.000000
vn -1.000000 0.000000 0.000000
vn -1.000000 0.000000 0.000000
vn -1.000000 0.000000 0.000000
s off
g signboard_06:group1pCube2
usemtl signboard_06:lambert2SG
f 13/19/29 14/20/30 16/21/31 15/22/32
f 15/22/33 16/21/34 18/23/35 17/24/36
f 17/24/37 18/23/38 20/25/39 19/26/40
f 19/26/41 20/25/42 14/27/43 13/28/44
f 14/20/45 20/29/46 18/30/47 16/21/48
f 19/31/49 13/19/50 15/22/51 17/32/52
g default
v 0.800000 0.550000 -0.010000
v -0.800000 0.550000 -0.010000
v 0.800000 1.450000 -0.010000
v -0.800000 1.450000 -0.010000
vt 0.000000 0.000000
vt -1.000000 0.000000
vt -1.000000 1.000000
vt 0.000000 1.000000
vn 0.000000 0.000000 -1.000000
vn 0.000000 0.000000 -1.000000
vn 0.000000 0.000000 -1.000000
vn 0.000000 0.000000 -1.000000
s off
g signboard_06:group1pPlane2
usemtl signboard_06:lambert3SG
f 21/33/53 22/34/54 24/35/55 23/36/56
