# This file uses centimeters as units for non-parametric coordinates.

mtllib enemy3.mtl
g default
v -1.000000 7.995714 1.000000
v 1.000000 7.995714 1.000000
v -1.000000 9.995714 1.000000
v 1.000000 9.995714 1.000000
v -1.000000 9.995714 -1.000000
v 1.000000 9.995714 -1.000000
v -1.000000 7.995714 -1.000000
v 1.000000 7.995714 -1.000000
vt 0.707196 0.654811
vt 0.739844 0.654811
vt 0.707196 0.687459
vt 0.739844 0.687459
vt 0.707196 0.720108
vt 0.739844 0.720108
vt 0.707196 0.752756
vt 0.739844 0.752756
vt 0.707196 0.785404
vt 0.739844 0.785404
vt 0.772493 0.654811
vt 0.772493 0.687459
vt 0.674548 0.654811
vt 0.674548 0.687459
vn 0.000000 0.000000 1.000000
vn 0.000000 0.000000 1.000000
vn 0.000000 0.000000 1.000000
vn 0.000000 0.000000 1.000000
vn 0.000000 1.000000 0.000000
vn 0.000000 1.000000 0.000000
vn 0.000000 1.000000 0.000000
vn 0.000000 1.000000 0.000000
vn 0.000000 0.000000 -1.000000
vn 0.000000 0.000000 -1.000000
vn 0.000000 0.000000 -1.000000
vn 0.000000 0.000000 -1.000000
vn 0.000000 -1.000000 0.000000
vn 0.000000 -1.000000 0.000000
vn 0.000000 -1.000000 0.000000
vn 0.000000 -1.000000 0.000000
vn 1.000000 0.000000 0.000000
vn 1.000000 0.000000 0.000000
vn 1.000000 0.000000 0.000000
vn 1.000000 0.000000 0.000000
vn -1.000000 0.000000 0.000000
vn -1.000000 0.000000 0.000000
vn -1.000000 0.000000 0.000000
vn -1.000000 0.000000 0.000000
s off
g pCube1
usemtl lambert2SG
f 1/1/1 2/2/2 4/4/3 3/3/4
f 3/3/5 4/4/6 6/6/7 5/5/8
f 5/5/9 6/6/10 8/8/11 7/7/12
f 7/7/13 8/8/14 2/10/15 1/9/16
f 2/2/17 8/11/18 6/12/19 4/4/20
f 7/13/21 1/1/22 3/3/23 5/14/24
g default
v -1.277774 3.424502 1.277774
v 1.277774 3.424502 1.277774
v -1.277774 7.592335 1.277774
v 1.277774 7.592335 1.277774
v -1.277774 7.592335 -1.277774
v 1.277774 7.592335 -1.277774
v -1.277774 3.424502 -1.277774
v 1.277774 3.424502 -1.277774
vt 0.673623 0.163912
vt 0.715404 0.163912
vt 0.673623 0.205693
vt 0.715404 0.205693
vt 0.673623 0.247473
vt 0.715404 0.247473
vt 0.673623 0.289254
vt 0.715404 0.289254
vt 0.673623 0.331035
vt 0.715404 0.331035
vt 0.757185 0.163912
vt 0.757185 0.205693
vt 0.631842 0.163912
vt 0.631842 0.205693
vn 0.000000 0.000000 1.000000
vn 0.000000 0.000000 1.000000
vn 0.000000 0.000000 1.000000
vn 0.000000 0.000000 1.000000
vn 0.000000 1.000000 0.000000
vn 0.000000 1.000000 0.000000
vn 0.000000 1.000000 0.000000
vn 0.000000 1.000000 0.000000
vn 0.000000 0.000000 -1.000000
vn 0.000000 0.000000 -1.000000
vn 0.000000 0.000000 -1.000000
vn 0.000000 0.000000 -1.000000
vn 0.000000 -1.000000 0.000000
vn 0.000000 -1.000000 0.000000
vn 0.000000 -1.000000 0.000000
vn 0.000000 -1.000000 0.000000
vn 1.000000 0.000000 0.000000
vn 1.000000 0.000000 0.000000
vn 1.000000 0.000000 0.000000
vn 1.000000 0.000000 0.000000
vn -1.000000 0.000000 0.000000
vn -1.000000 0.000000 0.000000
vn -1.000000 0.000000 0.000000
vn -1.000000 0.000000 0.000000
s off
g pCube2
usemtl lambert2SG
f 9/15/25 10/16/26 12/18/27 11/17/28
f 11/17/29 12/18/30 14/20/31 13/19/32
f 13/19/33 14/20/34 16/22/35 15/21/36
f 15/21/37 16/22/38 10/24/39 9/23/40
f 10/16/41 16/25/42 14/26/43 12/18/44
f 15/27/45 9/15/46 11/17/47 13/28/48
g default
v -1.372337 2.101010 0.453637
v 1.372337 2.101010 0.453637
v -1.736214 3.653921 1.628286
v 1.736214 3.653921 1.628286
v -1.736214 3.653921 -1.844142
v 1.736214 3.653921 -1.844142
v -1.372337 2.101010 -1.470045
v 1.372337 2.101010 -1.470045
vt 0.228970 0.115447
vt 0.296690 0.115447
vt 0.228970 0.183166
vt 0.296690 0.183166
vt 0.228970 0.250886
vt 0.296690 0.250886
vt 0.228970 0.318606
vt 0.296690 0.318606
vt 0.228970 0.386325
vt 0.296690 0.386325
vt 0.364409 0.115447
vt 0.364409 0.183166
vt 0.161250 0.115447
vt 0.161250 0.183166
vn 0.000000 -0.603270 0.797537
vn 0.000000 -0.603270 0.797537
vn 0.000000 -0.603270 0.797537
vn 0.000000 -0.603270 0.797537
vn 0.000000 1.000000 0.000000
vn 0.000000 1.000000 0.000000
vn 0.000000 1.000000 0.000000
vn 0.000000 1.000000 0.000000
vn 0.000000 -0.234201 -0.972188
vn 0.000000 -0.234201 -0.972188
vn 0.000000 -0.234201 -0.972188
vn 0.000000 -0.234201 -0.972188
vn 0.000000 -1.000000 0.000000
vn 0.000000 -1.000000 0.000000
vn 0.000000 -1.000000 0.000000
vn 0.000000 -1.000000 0.000000
vn 0.973628 -0.228140 0.000000
vn 0.973628 -0.228140 0.000000
vn 0.973628 -0.228140 0.000000
vn 0.973628 -0.228140 0.000000
vn -0.973628 -0.228140 0.000000
vn -0.973628 -0.228140 0.000000
vn -0.973628 -0.228140 0.000000
vn -0.973628 -0.228140 0.000000
s off
g pCube3
usemtl lambert2SG
f 17/29/49 18/30/50 20/32/51 19/31/52
f 19/31/53 20/32/54 22/34/55 21/33/56
f 21/33/57 22/34/58 24/36/59 23/35/60
f 23/35/61 24/36/62 18/38/63 17/37/64
f 18/30/65 24/39/66 22/40/67 20/32/68
f 23/41/69 17/29/70 19/31/71 21/42/72
g default
v -0.479147 7.288592 0.479147
v 0.479147 7.288592 0.479147
v -0.479147 8.246885 0.479147
v 0.479147 8.246885 0.479147
v -0.479147 8.246885 -0.479147
v 0.479147 8.246885 -0.479147
v -0.479147 7.288592 -0.479147
v 0.479147 7.288592 -0.479147
vt 0.224154 0.145662
vt 0.281031 0.145662
vt 0.224154 0.202540
vt 0.281031 0.202540
vt 0.224154 0.259417
vt 0.281031 0.259417
vt 0.224154 0.316295
vt 0.281031 0.316295
vt 0.224154 0.373173
vt 0.281031 0.373173
vt 0.337909 0.145662
vt 0.337909 0.202540
vt 0.167276 0.145662
vt 0.167276 0.202540
vn 0.000000 0.000000 1.000000
vn 0.000000 0.000000 1.000000
vn 0.000000 0.000000 1.000000
vn 0.000000 0.000000 1.000000
vn 0.000000 1.000000 0.000000
vn 0.000000 1.000000 0.000000
vn 0.000000 1.000000 0.000000
vn 0.000000 1.000000 0.000000
vn 0.000000 0.000000 -1.000000
vn 0.000000 0.000000 -1.000000
vn 0.000000 0.000000 -1.000000
vn 0.000000 0.000000 -1.000000
vn 0.000000 -1.000000 0.000000
vn 0.000000 -1.000000 0.000000
vn 0.000000 -1.000000 0.000000
vn 0.000000 -1.000000 0.000000
vn 1.000000 0.000000 0.000000
vn 1.000000 0.000000 0.000000
vn 1.000000 0.000000 0.000000
vn 1.000000 0.000000 0.000000
vn -1.000000 0.000000 0.000000
vn -1.000000 0.000000 0.000000
vn -1.000000 0.000000 0.000000
vn -1.000000 0.000000 0.000000
s off
g pCube4
usemtl lambert2SG
f 25/43/73 26/44/74 28/46/75 27/45/76
f 27/45/77 28/46/78 30/48/79 29/47/80
f 29/47/81 30/48/82 32/50/83 31/49/84
f 31/49/85 32/50/86 26/52/87 25/51/88
f 26/44/89 32/53/90 30/54/91 28/46/92
f 31/55/93 25/43/94 27/45/95 29/56/96
g default
v -1.807624 6.557523 0.232289
v 1.807624 6.557523 0.232289
v -1.807624 7.022100 0.232289
v 1.807624 7.022100 0.232289
v -1.807624 7.022100 -0.232289
v 1.807624 7.022100 -0.232289
v -1.807624 6.557523 -0.232289
v 1.807624 6.557523 -0.232289
vt 0.224154 0.145662
vt 0.281031 0.145662
vt 0.224154 0.202540
vt 0.281031 0.202540
vt 0.224154 0.259417
vt 0.281031 0.259417
vt 0.224154 0.316295
vt 0.281031 0.316295
vt 0.224154 0.373173
vt 0.281031 0.373173
vt 0.337909 0.145662
vt 0.337909 0.202540
vt 0.167276 0.145662
vt 0.167276 0.202540
vn 0.000000 0.000000 1.000000
vn 0.000000 0.000000 1.000000
vn 0.000000 0.000000 1.000000
vn 0.000000 0.000000 1.000000
vn 0.000000 1.000000 0.000000
vn 0.000000 1.000000 0.000000
vn 0.000000 1.000000 0.000000
vn 0.000000 1.000000 0.000000
vn 0.000000 0.000000 -1.000000
vn 0.000000 0.000000 -1.000000
vn 0.000000 0.000000 -1.000000
vn 0.000000 0.000000 -1.000000
vn 0.000000 -1.000000 0.000000
vn 0.000000 -1.000000 0.000000
vn 0.000000 -1.000000 0.000000
vn 0.000000 -1.000000 0.000000
vn 1.000000 0.000000 0.000000
vn 1.000000 0.000000 0.000000
vn 1.000000 0.000000 0.000000
vn 1.000000 0.000000 0.000000
vn -1.000000 0.000000 0.000000
vn -1.000000 0.000000 0.000000
vn -1.000000 0.000000 0.000000
vn -1.000000 0.000000 0.000000
s off
g pCube5
usemtl lambert2SG
f 33/57/97 34/58/98 36/60/99 35/59/100
f 35/59/101 36/60/102 38/62/103 37/61/104
f 37/61/105 38/62/106 40/64/107 39/63/108
f 39/63/109 40/64/110 34/66/111 33/65/112
f 34/58/113 40/67/114 38/68/115 36/60/116
f 39/69/117 33/57/118 35/59/119 37/70/120
g default
v -2.399916 5.456244 0.831560
v -1.516974 5.456244 0.831560
v -2.399916 7.456244 0.831560
v -1.516974 7.456244 0.831560
v -2.399916 7.456244 -0.831560
v -1.516974 7.456244 -0.831560
v -2.399916 5.456244 -0.831560
v -1.516974 5.456244 -0.831560
vt 0.673623 0.163912
vt 0.715404 0.163912
vt 0.673623 0.205693
vt 0.715404 0.205693
vt 0.673623 0.247473
vt 0.715404 0.247473
vt 0.673623 0.289254
vt 0.715404 0.289254
vt 0.673623 0.331035
vt 0.715404 0.331035
vt 0.757185 0.163912
vt 0.757185 0.205693
vt 0.631842 0.163912
vt 0.631842 0.205693
vn 0.000000 0.000000 1.000000
vn 0.000000 0.000000 1.000000
vn 0.000000 0.000000 1.000000
vn 0.000000 0.000000 1.000000
vn 0.000000 1.000000 0.000000
vn 0.000000 1.000000 0.000000
vn 0.000000 1.000000 0.000000
vn 0.000000 1.000000 0.000000
vn 0.000000 0.000000 -1.000000
vn 0.000000 0.000000 -1.000000
vn 0.000000 0.000000 -1.000000
vn 0.000000 0.000000 -1.000000
vn 0.000000 -1.000000 0.000000
vn 0.000000 -1.000000 0.000000
vn 0.000000 -1.000000 0.000000
vn 0.000000 -1.000000 0.000000
vn 1.000000 0.000000 0.000000
vn 1.000000 0.000000 0.000000
vn 1.000000 0.000000 0.000000
vn 1.000000 0.000000 0.000000
vn -1.000000 0.000000 0.000000
vn -1.000000 0.000000 0.000000
vn -1.000000 0.000000 0.000000
vn -1.000000 0.000000 0.000000
s off
g pCube6
usemtl lambert2SG
f 41/71/121 42/72/122 44/74/123 43/73/124
f 43/73/125 44/74/126 46/76/127 45/75/128
f 45/75/129 46/76/130 48/78/131 47/77/132
f 47/77/133 48/78/134 42/80/135 41/79/136
f 42/72/137 48/81/138 46/82/139 44/74/140
f 47/83/141 41/71/142 43/73/143 45/84/144
g default
v 1.505968 5.456244 0.831560
v 2.388911 5.456244 0.831560
v 1.505968 7.456244 0.831560
v 2.388911 7.456244 0.831560
v 1.505968 7.456244 -0.831560
v 2.388911 7.456244 -0.831560
v 1.505968 5.456244 -0.831560
v 2.388911 5.456244 -0.831560
vt 0.673623 0.163912
vt 0.715404 0.163912
vt 0.673623 0.205693
vt 0.715404 0.205693
vt 0.673623 0.247473
vt 0.715404 0.247473
vt 0.673623 0.289254
vt 0.715404 0.289254
vt 0.673623 0.331035
vt 0.715404 0.331035
vt 0.757185 0.163912
vt 0.757185 0.205693
vt 0.631842 0.163912
vt 0.631842 0.205693
vn 0.000000 0.000000 1.000000
vn 0.000000 0.000000 1.000000
vn 0.000000 0.000000 1.000000
vn 0.000000 0.000000 1.000000
vn 0.000000 1.000000 0.000000
vn 0.000000 1.000000 0.000000
vn 0.000000 1.000000 0.000000
vn 0.000000 1.000000 0.000000
vn 0.000000 0.000000 -1.000000
vn 0.000000 0.000000 -1.000000
vn 0.000000 0.000000 -1.000000
vn 0.000000 0.000000 -1.000000
vn 0.000000 -1.000000 0.000000
vn 0.000000 -1.000000 0.000000
vn 0.000000 -1.000000 0.000000
vn 0.000000 -1.000000 0.000000
vn 1.000000 0.000000 0.000000
vn 1.000000 0.000000 0.000000
vn 1.000000 0.000000 0.000000
vn 1.000000 0.000000 0.000000
vn -1.000000 0.000000 0.000000
vn -1.000000 0.000000 0.000000
vn -1.000000 0.000000 0.000000
vn -1.000000 0.000000 0.000000
s off
g pCube7
usemtl lambert2SG
f 49/85/145 50/86/146 52/88/147 51/87/148
f 51/87/149 52/88/150 54/90/151 53/89/152
f 53/89/153 54/90/154 56/92/155 55/91/156
f 55/91/157 56/92/158 50/94/159 49/93/160
f 50/86/161 56/95/162 54/96/163 52/88/164
f 55/97/165 49/85/166 51/87/167 53/98/168
g default
v 0.442762 9.736326 -0.534475
v -0.442761 9.736327 -0.534475
v -0.885523 8.969441 -0.534475
v -0.442762 8.202555 -0.534475
v 0.442762 8.202555 -0.534475
v 0.885523 8.969441 -0.534475
v 0.442762 9.736326 1.236571
v -0.442761 9.736327 1.236571
v -0.885523 8.969441 1.236571
v -0.442762 8.202555 1.236571
v 0.442762 8.202555 1.236571
v 0.885523 8.969441 1.236571
v 0.000000 8.969441 -0.534475
v 0.000000 8.969441 1.236571
vt 0.248856 0.579869
vt 0.209493 0.579869
vt 0.170129 0.625221
vt 0.170129 0.670573
vt 0.209493 0.670573
vt 0.248856 0.625221
vt 0.165552 0.736393
vt 0.195087 0.736393
vt 0.224623 0.736393
vt 0.254159 0.736393
vt 0.283695 0.736393
vt 0.313231 0.736393
vt 0.342767 0.736393
vt 0.165552 0.795464
vt 0.195087 0.795464
vt 0.224623 0.795464
vt 0.254159 0.795464
vt 0.283695 0.795464
vt 0.313231 0.795464
vt 0.342767 0.795464
vt 0.248856 0.810291
vt 0.209493 0.810291
vt 0.170129 0.855643
vt 0.170129 0.900996
vt 0.209493 0.900996
vt 0.248856 0.855643
vt 0.209493 0.625221
vt 0.209493 0.855643
vn 0.000000 1.000000 0.000000
vn 0.000000 1.000000 0.000000
vn 0.000000 1.000000 0.000000
vn 0.000000 1.000000 0.000000
vn -0.866025 0.500000 0.000000
vn -0.866025 0.500000 0.000000
vn -0.866025 0.500000 0.000000
vn -0.866025 0.500000 0.000000
vn -0.866025 -0.500000 0.000000
vn -0.866025 -0.500000 0.000000
vn -0.866025 -0.500000 0.000000
vn -0.866025 -0.500000 0.000000
vn -0.000000 -1.000000 0.000000
vn -0.000000 -1.000000 0.000000
vn -0.000000 -1.000000 0.000000
vn -0.000000 -1.000000 0.000000
vn 0.866025 -0.500000 0.000000
vn 0.866025 -0.500000 0.000000
vn 0.866025 -0.500000 0.000000
vn 0.866025 -0.500000 0.000000
vn 0.866025 0.500000 0.000000
vn 0.866025 0.500000 0.000000
vn 0.866025 0.500000 0.000000
vn 0.866025 0.500000 0.000000
vn 0.000000 -0.000000 -1.000000
vn 0.000000 -0.000000 -1.000000
vn 0.000000 -0.000000 -1.000000
vn 0.000000 -0.000000 -1.000000
vn 0.000000 0.000000 -1.000000
vn 0.000000 0.000000 -1.000000
vn 0.000000 -0.000000 -1.000000
vn 0.000000 0.000000 1.000000
vn 0.000000 0.000000 1.000000
vn 0.000000 0.000000 1.000000
vn 0.000000 0.000000 1.000000
vn 0.000000 0.000000 1.000000
vn 0.000000 -0.000000 1.000000
vn 0.000000 -0.000000 1.000000
s off
g pCylinder1
usemtl lambert2SG
f 57/105/169 58/106/170 64/113/171 63/112/172
f 58/106/173 59/107/174 65/114/175 64/113/176
f 59/107/177 60/108/178 66/115/179 65/114/180
f 60/108/181 61/109/182 67/116/183 66/115/184
f 61/109/185 62/110/186 68/117/187 67/116/188
f 62/110/189 57/111/190 63/118/191 68/117/192
s 1
f 58/100/193 57/99/194 69/125/195
f 59/101/196 58/100/193 69/125/195
f 60/102/197 59/101/196 69/125/195
f 61/103/198 60/102/197 69/125/195
f 62/104/199 61/103/198 69/125/195
f 57/99/194 62/104/199 69/125/195
s 2
f 63/123/200 64/122/201 70/126/202
f 64/122/201 65/121/203 70/126/202
f 65/121/203 66/120/204 70/126/202
f 66/120/204 67/119/205 70/126/202
f 67/119/205 68/124/206 70/126/202
f 68/124/206 63/123/200 70/126/202
g default
v 0.543947 4.966045 -2.112197
v 0.543947 2.783136 -0.892319
v 0.543947 6.800774 -0.413091
v 0.139335 5.000863 -2.404096
v 0.139335 2.516284 -1.015634
v 0.139335 7.089145 -0.470179
v 0.293883 5.057200 -2.876398
v 0.293883 2.084507 -1.215163
v 0.293883 7.555740 -0.562549
v 0.794010 5.057200 -2.876398
v 0.794010 2.084507 -1.215163
v 0.794010 7.555740 -0.562549
v 0.948558 5.000863 -2.404096
v 0.948558 2.516284 -1.015634
v 0.948558 7.089145 -0.470179
vt 0.082275 0.356365
vt 0.124467 0.356365
vt 0.251042 0.356365
vt 0.293234 0.356365
vt 0.082275 0.314174
vt 0.124467 0.314174
vt 0.251042 0.314174
vt 0.293234 0.314174
vt 0.082275 0.271982
vt 0.124467 0.271982
vt 0.251042 0.271982
vt 0.293234 0.271982
vt 0.082275 0.229790
vt 0.124467 0.229790
vt 0.251042 0.229790
vt 0.293234 0.229790
vt 0.082275 0.187598
vt 0.124467 0.187598
vt 0.251042 0.187598
vt 0.293234 0.187598
vt 0.082275 0.145407
vt 0.124467 0.145407
vt 0.251042 0.145407
vt 0.293234 0.145407
vn -0.506732 0.420557 0.752565
vn -0.506732 0.420557 0.752565
vn -0.506732 0.420557 0.752565
vn -0.506732 0.420557 0.752565
vn -0.506732 -0.585773 0.632529
vn -0.506732 -0.585773 0.632529
vn -0.506732 -0.585773 0.632529
vn -0.506732 -0.585773 0.632529
vn -0.927957 -0.181807 -0.325335
vn -0.927957 -0.181807 -0.325335
vn -0.927957 -0.181807 -0.325335
vn -0.927957 -0.181807 -0.325335
vn -0.927957 0.253230 -0.273443
vn -0.927957 0.253230 -0.273443
vn -0.927957 0.253230 -0.273443
vn -0.927957 0.253230 -0.273443
vn -0.000000 -0.487827 -0.872940
vn -0.000000 -0.487827 -0.872940
vn -0.000000 -0.487827 -0.872940
vn -0.000000 -0.487827 -0.872940
vn 0.000000 0.679469 -0.733704
vn 0.000000 0.679469 -0.733704
vn 0.000000 0.679469 -0.733704
vn 0.000000 0.679469 -0.733704
vn 0.927957 -0.181807 -0.325335
vn 0.927957 -0.181807 -0.325335
vn 0.927957 -0.181807 -0.325335
vn 0.927957 -0.181807 -0.325335
vn 0.927957 0.253230 -0.273443
vn 0.927957 0.253230 -0.273443
vn 0.927957 0.253230 -0.273443
vn 0.927957 0.253230 -0.273443
vn 0.506732 0.420557 0.752565
vn 0.506732 0.420557 0.752565
vn 0.506732 0.420557 0.752565
vn 0.506732 0.420557 0.752565
vn 0.506732 -0.585773 0.632529
vn 0.506732 -0.585773 0.632529
vn 0.506732 -0.585773 0.632529
vn 0.506732 -0.585773 0.632529
s off
g pTorus1
usemtl lambert2SG
f 72/128/207 71/127/208 74/131/209 75/132/210
f 71/130/211 73/129/212 76/133/213 74/134/214
f 75/132/215 74/131/216 77/135/217 78/136/218
f 74/134/219 76/133/220 79/137/221 77/138/222
f 78/136/223 77/135/224 80/139/225 81/140/226
f 77/138/227 79/137/228 82/141/229 80/142/230
f 81/140/231 80/139/232 83/143/233 84/144/234
f 80/142/235 82/141/236 85/145/237 83/146/238
f 84/144/239 83/143/240 71/147/241 72/148/242
f 83/146/243 85/145/244 73/149/245 71/150/246
g default
v -0.713706 4.966045 -2.112197
v -0.713706 2.783136 -0.892319
v -0.713706 6.800774 -0.413091
v -1.118318 5.000863 -2.404096
v -1.118318 2.516284 -1.015634
v -1.118318 7.089145 -0.470179
v -0.963770 5.057200 -2.876398
v -0.963770 2.084507 -1.215163
v -0.963770 7.555740 -0.562549
v -0.463642 5.057200 -2.876398
v -0.463642 2.084507 -1.215163
v -0.463642 7.555740 -0.562549
v -0.309094 5.000863 -2.404096
v -0.309094 2.516284 -1.015634
v -0.309094 7.089145 -0.470179
vt 0.082275 0.356365
vt 0.124467 0.356365
vt 0.251042 0.356365
vt 0.293234 0.356365
vt 0.082275 0.314174
vt 0.124467 0.314174
vt 0.251042 0.314174
vt 0.293234 0.314174
vt 0.082275 0.271982
vt 0.124467 0.271982
vt 0.251042 0.271982
vt 0.293234 0.271982
vt 0.082275 0.229790
vt 0.124467 0.229790
vt 0.251042 0.229790
vt 0.293234 0.229790
vt 0.082275 0.187598
vt 0.124467 0.187598
vt 0.251042 0.187598
vt 0.293234 0.187598
vt 0.082275 0.145407
vt 0.124467 0.145407
vt 0.251042 0.145407
vt 0.293234 0.145407
vn -0.506732 0.420557 0.752565
vn -0.506732 0.420557 0.752565
vn -0.506732 0.420557 0.752565
vn -0.506732 0.420557 0.752565
vn -0.506732 -0.585773 0.632529
vn -0.506732 -0.585773 0.632529
vn -0.506732 -0.585773 0.632529
vn -0.506732 -0.585773 0.632529
vn -0.927957 -0.181807 -0.325335
vn -0.927957 -0.181807 -0.325335
vn -0.927957 -0.181807 -0.325335
vn -0.927957 -0.181807 -0.325335
vn -0.927957 0.253230 -0.273443
vn -0.927957 0.253230 -0.273443
vn -0.927957 0.253230 -0.273443
vn -0.927957 0.253230 -0.273443
vn -0.000000 -0.487827 -0.872940
vn -0.000000 -0.487827 -0.872940
vn -0.000000 -0.487827 -0.872940
vn -0.000000 -0.487827 -0.872940
vn 0.000000 0.679469 -0.733704
vn 0.000000 0.679469 -0.733704
vn 0.000000 0.679469 -0.733704
vn 0.000000 0.679469 -0.733704
vn 0.927957 -0.181807 -0.325335
vn 0.927957 -0.181807 -0.325335
vn 0.927957 -0.181807 -0.325335
vn 0.927957 -0.181807 -0.325335
vn 0.927957 0.253230 -0.273443
vn 0.927957 0.253230 -0.273443
vn 0.927957 0.253230 -0.273443
vn 0.927957 0.253230 -0.273443
vn 0.506732 0.420557 0.752565
vn 0.506732 0.420557 0.752565
vn 0.506732 0.420557 0.752565
vn 0.506732 0.420557 0.752565
vn 0.506732 -0.585773 0.632529
vn 0.506732 -0.585773 0.632529
vn 0.506732 -0.585773 0.632529
vn 0.506732 -0.585773 0.632529
s off
g pTorus2
usemtl lambert2SG
f 87/152/247 86/151/248 89/155/249 90/156/250
f 86/154/251 88/153/252 91/157/253 89/158/254
f 90/156/255 89/155/256 92/159/257 93/160/258
f 89/158/259 91/157/260 94/161/261 92/162/262
f 93/160/263 92/159/264 95/163/265 96/164/266
f 92/162/267 94/161/268 97/165/269 95/166/270
f 96/164/271 95/163/272 98/167/273 99/168/274
f 95/166/275 97/165/276 100/169/277 98/170/278
f 99/168/279 98/167/280 86/171/281 87/172/282
f 98/170/283 100/169/284 88/173/285 86/174/286
