# This file uses centimeters as units for non-parametric coordinates.

mtllib cardobj.mtl
g default
v -0.101064 1.771711 1.590794
v 0.101065 1.771706 1.590798
v -0.101064 4.283706 0.092886
v 0.101065 4.283692 0.092897
v -0.101064 3.279699 -1.590803
v 0.101065 3.279718 -1.590813
v -0.101064 0.767687 -0.092886
v 0.101065 0.767706 -0.092895
vt 0.208337 0.478416
vt 0.303718 0.478416
vt 0.208337 0.573797
vt 0.303718 0.573797
vt 0.208337 0.669178
vt 0.303718 0.669178
vt 0.208337 0.764559
vt 0.303718 0.764559
vt 0.208337 0.859940
vt 0.303718 0.859940
vt 0.399099 0.478416
vt 0.399099 0.573797
vt 0.112956 0.478416
vt 0.112956 0.573797
vn -0.000008 0.512158 0.858891
vn -0.000008 0.512158 0.858891
vn -0.000008 0.512158 0.858891
vn -0.000008 0.512158 0.858891
vn -0.000011 0.858892 -0.512157
vn -0.000011 0.858892 -0.512157
vn -0.000011 0.858892 -0.512157
vn -0.000011 0.858892 -0.512157
vn 0.000008 -0.512158 -0.858891
vn 0.000008 -0.512158 -0.858891
vn 0.000008 -0.512158 -0.858891
vn 0.000008 -0.512158 -0.858891
vn 0.000035 -0.858885 0.512169
vn 0.000035 -0.858885 0.512169
vn 0.000035 -0.858885 0.512169
vn 0.000035 -0.858885 0.512169
vn 1.000000 0.000000 0.000000
vn 1.000000 0.000000 0.000000
vn 1.000000 0.000000 0.000000
vn 1.000000 0.000000 0.000000
vn -1.000000 -0.000000 0.000000
vn -1.000000 -0.000000 0.000000
vn -1.000000 -0.000000 0.000000
vn -1.000000 -0.000000 0.000000
s off
g pCube1
usemtl lambert2SG
f 1/1/1 2/2/2 4/4/3 3/3/4
f 3/3/5 4/4/6 6/6/7 5/5/8
f 5/5/9 6/6/10 8/8/11 7/7/12
f 7/7/13 8/8/14 2/10/15 1/9/16
f 2/2/17 8/11/18 6/12/19 4/4/20
f 7/13/21 1/1/22 3/3/23 5/14/24
g default
v -2.053850 -0.422326 2.053850
v 2.053850 -0.422326 2.053850
v -2.053850 0.422326 2.053850
v 2.053850 0.422326 2.053850
v -2.053850 0.422326 -2.053850
v 2.053850 0.422326 -2.053850
v -2.053850 -0.422326 -2.053850
v 2.053850 -0.422326 -2.053850
vt 0.659511 0.953013
vt 0.655650 0.969077
vt 0.629520 0.951938
vt 0.625659 0.968001
vt 0.599529 0.950862
vt 0.595668 0.966925
vt 0.569538 0.949786
vt 0.565677 0.965849
vt 0.539547 0.948711
vt 0.535687 0.964774
vt 0.651789 0.985139
vt 0.621798 0.984064
vt 0.663372 0.936951
vt 0.633381 0.935875
vn 0.000000 0.000000 1.000000
vn 0.000000 0.000000 1.000000
vn 0.000000 0.000000 1.000000
vn 0.000000 0.000000 1.000000
vn 0.000000 1.000000 0.000000
vn 0.000000 1.000000 0.000000
vn 0.000000 1.000000 0.000000
vn 0.000000 1.000000 0.000000
vn 0.000000 0.000000 -1.000000
vn 0.000000 0.000000 -1.000000
vn 0.000000 0.000000 -1.000000
vn 0.000000 0.000000 -1.000000
vn 0.000000 -1.000000 0.000000
vn 0.000000 -1.000000 0.000000
vn 0.000000 -1.000000 0.000000
vn 0.000000 -1.000000 0.000000
vn 1.000000 0.000000 0.000000
vn 1.000000 0.000000 0.000000
vn 1.000000 0.000000 0.000000
vn 1.000000 0.000000 0.000000
vn -1.000000 0.000000 0.000000
vn -1.000000 0.000000 0.000000
vn -1.000000 0.000000 0.000000
vn -1.000000 0.000000 0.000000
s off
g pCube2
usemtl lambert3SG
f 9/15/25 10/16/26 12/18/27 11/17/28
f 11/17/29 12/18/30 14/20/31 13/19/32
f 13/19/33 14/20/34 16/22/35 15/21/36
f 15/21/37 16/22/38 10/24/39 9/23/40
f 10/16/41 16/25/42 14/26/43 12/18/44
f 15/27/45 9/15/46 11/17/47 13/28/48
