# This file uses centimeters as units for non-parametric coordinates.

mtllib hitbox.mtl
g default
v 0.482963 0.000000 -0.129409
v 0.433012 0.000000 -0.250000
v 0.353553 0.000000 -0.353553
v 0.250000 0.000000 -0.433012
v 0.129410 0.000000 -0.482963
v 0.000000 0.000000 -0.500000
v -0.129409 0.000000 -0.482963
v -0.250000 0.000000 -0.433013
v -0.353553 0.000000 -0.353553
v -0.433013 0.000000 -0.250000
v -0.482963 0.000000 -0.129410
v -0.500000 0.000000 -0.000000
v -0.482963 0.000000 0.129409
v -0.433013 0.000000 0.250000
v -0.353553 0.000000 0.353553
v -0.250000 0.000000 0.433013
v -0.129410 0.000000 0.482963
v -0.000000 0.000000 0.500000
v 0.129409 0.000000 0.482963
v 0.250000 0.000000 0.433013
v 0.353553 0.000000 0.353553
v 0.433013 0.000000 0.250000
v 0.482963 0.000000 0.129410
v 0.500000 0.000000 0.000000
v 0.482963 1.000000 -0.129409
v 0.433012 1.000000 -0.250000
v 0.353553 1.000000 -0.353553
v 0.250000 1.000000 -0.433012
v 0.129410 1.000000 -0.482963
v 0.000000 1.000000 -0.500000
v -0.129409 1.000000 -0.482963
v -0.250000 1.000000 -0.433013
v -0.353553 1.000000 -0.353553
v -0.433013 1.000000 -0.250000
v -0.482963 1.000000 -0.129410
v -0.500000 1.000000 -0.000000
v -0.482963 1.000000 0.129409
v -0.433013 1.000000 0.250000
v -0.353553 1.000000 0.353553
v -0.250000 1.000000 0.433013
v -0.129410 1.000000 0.482963
v -0.000000 1.000000 0.500000
v 0.129409 1.000000 0.482963
v 0.250000 1.000000 0.433013
v 0.353553 1.000000 0.353553
v 0.433013 1.000000 0.250000
v 0.482963 1.000000 0.129410
v 0.500000 1.000000 0.000000
v 0.000000 0.000000 0.000000
v 0.000000 1.000000 0.000000
vt 0.145638 0.312500
vt 0.175168 0.312500
vt 0.204698 0.312500
vt 0.234228 0.312500
vt 0.263759 0.312500
vt 0.293289 0.312500
vt 0.322819 0.312500
vt 0.352349 0.312500
vt 0.381879 0.312500
vt 0.411409 0.312500
vt 0.440939 0.312500
vt 0.470469 0.312500
vt 0.500000 0.312500
vt 0.529530 0.312500
vt 0.559060 0.312500
vt 0.588590 0.312500
vt 0.618120 0.312500
vt 0.647651 0.312500
vt 0.677181 0.312500
vt 0.706711 0.312500
vt 0.736241 0.312500
vt 0.765772 0.312500
vt 0.795302 0.312500
vt 0.824832 0.312500
vt 0.854362 0.312500
vt 0.145638 0.688440
vt 0.175168 0.688440
vt 0.204698 0.688440
vt 0.234228 0.688440
vt 0.263759 0.688440
vt 0.293289 0.688440
vt 0.322819 0.688440
vt 0.352349 0.688440
vt 0.381879 0.688440
vt 0.411409 0.688440
vt 0.440939 0.688440
vt 0.470469 0.688440
vt 0.500000 0.688440
vt 0.529530 0.688440
vt 0.559060 0.688440
vt 0.588590 0.688440
vt 0.618120 0.688440
vt 0.647651 0.688440
vt 0.677181 0.688440
vt 0.706711 0.688440
vt 0.736241 0.688440
vt 0.765772 0.688440
vt 0.795302 0.688440
vt 0.824832 0.688440
vt 0.854362 0.688440
vt 0.628894 0.018962
vt 0.749004 0.068713
vt 0.500000 0.500000
vt 0.852145 0.147855
vt 0.500000 0.001992
vt 0.931287 0.250996
vt 0.371106 0.018961
vt 0.981039 0.371106
vt 0.250996 0.068712
vt 0.998008 0.500000
vt 0.147855 0.147855
vt 0.981039 0.628894
vt 0.068712 0.250996
vt 0.931288 0.749004
vt 0.018961 0.371106
vt 0.852145 0.852145
vt 0.001992 0.500000
vt 0.749004 0.931288
vt 0.018961 0.628894
vt 0.628894 0.981039
vt 0.068713 0.749004
vt 0.500000 0.998008
vt 0.147855 0.852145
vt 0.371106 0.981039
vt 0.250996 0.931288
vt 0.250996 0.068713
vt 0.371106 0.018962
vt 0.500000 0.500000
vt 0.500000 0.001992
vt 0.147855 0.147855
vt 0.628894 0.018961
vt 0.068712 0.250996
vt 0.749004 0.068712
vt 0.018961 0.371106
vt 0.852145 0.147855
vt 0.001992 0.500000
vt 0.931287 0.250996
vt 0.018961 0.628894
vt 0.981039 0.371106
vt 0.068712 0.749004
vt 0.998008 0.500000
vt 0.147855 0.852145
vt 0.981039 0.628894
vt 0.250996 0.931288
vt 0.931287 0.749004
vt 0.371106 0.981039
vt 0.852145 0.852145
vt 0.500000 0.998008
vt 0.749004 0.931288
vt 0.628894 0.981039
vn 0.965926 0.000000 -0.258820
vn 0.866025 0.000000 -0.500000
vn 0.866025 0.000000 -0.500000
vn 0.965926 0.000000 -0.258820
vn 0.707107 0.000000 -0.707107
vn 0.707107 0.000000 -0.707107
vn 0.500000 0.000000 -0.866025
vn 0.500000 0.000000 -0.866025
vn 0.258819 0.000000 -0.965926
vn 0.258819 0.000000 -0.965926
vn 0.000000 0.000000 -1.000000
vn 0.000000 0.000000 -1.000000
vn -0.258819 0.000000 -0.965926
vn -0.258819 0.000000 -0.965926
vn -0.500000 0.000000 -0.866026
vn -0.500000 0.000000 -0.866026
vn -0.707107 0.000000 -0.707107
vn -0.707107 0.000000 -0.707107
vn -0.866025 0.000000 -0.500000
vn -0.866025 0.000000 -0.500000
vn -0.965926 0.000000 -0.258819
vn -0.965926 0.000000 -0.258819
vn -1.000000 0.000000 -0.000000
vn -1.000000 0.000000 -0.000000
vn -0.965926 0.000000 0.258819
vn -0.965926 0.000000 0.258819
vn -0.866025 0.000000 0.500000
vn -0.866025 0.000000 0.500000
vn -0.707107 0.000000 0.707107
vn -0.707107 0.000000 0.707107
vn -0.500000 0.000000 0.866025
vn -0.500000 0.000000 0.866025
vn -0.258819 0.000000 0.965926
vn -0.258819 0.000000 0.965926
vn -0.000000 0.000000 1.000000
vn -0.000000 0.000000 1.000000
vn 0.258819 0.000000 0.965926
vn 0.258819 0.000000 0.965926
vn 0.500000 0.000000 0.866026
vn 0.500000 0.000000 0.866026
vn 0.707107 0.000000 0.707107
vn 0.707107 0.000000 0.707107
vn 0.866025 0.000000 0.500000
vn 0.866025 0.000000 0.500000
vn 0.965926 0.000000 0.258819
vn 0.965926 0.000000 0.258819
vn 1.000000 0.000000 -0.000001
vn 1.000000 0.000000 -0.000001
vn 0.000000 -1.000000 0.000000
vn 0.000000 -1.000000 0.000000
vn 0.000000 -1.000000 -0.000000
vn 0.000000 -1.000000 0.000000
vn 0.000000 -1.000000 0.000000
vn 0.000000 -1.000000 0.000000
vn 0.000000 -1.000000 0.000000
vn 0.000000 -1.000000 0.000000
vn 0.000000 -1.000000 0.000000
vn 0.000000 -1.000000 0.000000
vn 0.000000 -1.000000 0.000000
vn 0.000000 -1.000000 0.000000
vn 0.000000 -1.000000 0.000000
vn 0.000000 -1.000000 0.000000
vn 0.000000 -1.000000 0.000000
vn 0.000000 -1.000000 -0.000000
vn 0.000000 -1.000000 -0.000000
vn 0.000000 -1.000000 -0.000000
vn 0.000000 -1.000000 0.000000
vn 0.000000 -1.000000 0.000000
vn 0.000000 -1.000000 0.000000
vn 0.000000 -1.000000 0.000000
vn 0.000000 -1.000000 -0.000000
vn 0.000000 -1.000000 -0.000000
vn 0.000000 -1.000000 0.000000
vn 0.000000 1.000000 0.000000
vn 0.000000 1.000000 0.000000
vn 0.000000 1.000000 0.000000
vn 0.000000 1.000000 0.000000
vn 0.000000 1.000000 0.000000
vn 0.000000 1.000000 0.000000
vn 0.000000 1.000000 -0.000000
vn 0.000000 1.000000 0.000000
vn 0.000000 1.000000 0.000000
vn 0.000000 1.000000 0.000000
vn 0.000000 1.000000 0.000000
vn 0.000000 1.000000 0.000000
vn 0.000000 1.000000 0.000000
vn 0.000000 1.000000 0.000000
vn 0.000000 1.000000 0.000000
vn 0.000000 1.000000 0.000000
vn 0.000000 1.000000 0.000000
vn 0.000000 1.000000 -0.000000
vn 0.000000 1.000000 -0.000000
vn 0.000000 1.000000 0.000000
vn 0.000000 1.000000 0.000000
vn 0.000000 1.000000 0.000000
vn 0.000000 1.000000 -0.000000
vn 0.000000 1.000000 -0.000000
vn 0.000000 1.000000 0.000000
s 1
g pCylinder1
usemtl lambert3SG
f 1/1/1 2/2/2 26/27/3 25/26/4
f 2/2/2 3/3/5 27/28/6 26/27/3
f 3/3/5 4/4/7 28/29/8 27/28/6
f 4/4/7 5/5/9 29/30/10 28/29/8
f 5/5/9 6/6/11 30/31/12 29/30/10
f 6/6/11 7/7/13 31/32/14 30/31/12
f 7/7/13 8/8/15 32/33/16 31/32/14
f 8/8/15 9/9/17 33/34/18 32/33/16
f 9/9/17 10/10/19 34/35/20 33/34/18
f 10/10/19 11/11/21 35/36/22 34/35/20
f 11/11/21 12/12/23 36/37/24 35/36/22
f 12/12/23 13/13/25 37/38/26 36/37/24
f 13/13/25 14/14/27 38/39/28 37/38/26
f 14/14/27 15/15/29 39/40/30 38/39/28
f 15/15/29 16/16/31 40/41/32 39/40/30
f 16/16/31 17/17/33 41/42/34 40/41/32
f 17/17/33 18/18/35 42/43/36 41/42/34
f 18/18/35 19/19/37 43/44/38 42/43/36
f 19/19/37 20/20/39 44/45/40 43/44/38
f 20/20/39 21/21/41 45/46/42 44/45/40
f 21/21/41 22/22/43 46/47/44 45/46/42
f 22/22/43 23/23/45 47/48/46 46/47/44
f 23/23/45 24/24/47 48/49/48 47/48/46
f 24/24/47 1/25/1 25/50/4 48/49/48
s 2
f 2/76/49 1/77/50 49/78/51
f 3/80/52 2/76/49 49/78/51
f 4/82/53 3/80/52 49/78/51
f 5/84/54 4/82/53 49/78/51
f 6/86/55 5/84/54 49/78/51
f 7/88/56 6/86/55 49/78/51
f 8/90/57 7/88/56 49/78/51
f 9/92/58 8/90/57 49/78/51
f 10/94/59 9/92/58 49/78/51
f 11/96/60 10/94/59 49/78/51
f 12/98/61 11/96/60 49/78/51
f 13/100/62 12/98/61 49/78/51
f 14/99/63 13/100/62 49/78/51
f 15/97/64 14/99/63 49/78/51
f 16/95/65 15/97/64 49/78/51
f 17/93/66 16/95/65 49/78/51
f 18/91/67 17/93/66 49/78/51
f 19/89/68 18/91/67 49/78/51
f 20/87/69 19/89/68 49/78/51
f 21/85/70 20/87/69 49/78/51
f 22/83/71 21/85/70 49/78/51
f 23/81/72 22/83/71 49/78/51
f 24/79/73 23/81/72 49/78/51
f 1/77/50 24/79/73 49/78/51
s 3
f 25/51/74 26/52/75 50/53/76
f 26/52/75 27/54/77 50/53/76
f 27/54/77 28/56/78 50/53/76
f 28/56/78 29/58/79 50/53/76
f 29/58/79 30/60/80 50/53/76
f 30/60/80 31/62/81 50/53/76
f 31/62/81 32/64/82 50/53/76
f 32/64/82 33/66/83 50/53/76
f 33/66/83 34/68/84 50/53/76
f 34/68/84 35/70/85 50/53/76
f 35/70/85 36/72/86 50/53/76
f 36/72/86 37/74/87 50/53/76
f 37/74/87 38/75/88 50/53/76
f 38/75/88 39/73/89 50/53/76
f 39/73/89 40/71/90 50/53/76
f 40/71/90 41/69/91 50/53/76
f 41/69/91 42/67/92 50/53/76
f 42/67/92 43/65/93 50/53/76
f 43/65/93 44/63/94 50/53/76
f 44/63/94 45/61/95 50/53/76
f 45/61/95 46/59/96 50/53/76
f 46/59/96 47/57/97 50/53/76
f 47/57/97 48/55/98 50/53/76
f 48/55/98 25/51/74 50/53/76
