# This file uses centimeters as units for non-parametric coordinates.

mtllib concrete_wall_01.mtl
g default
v -13.958686 2.130861 3.489671
v 13.958686 2.130861 3.489671
v -13.958686 30.048232 3.489671
v 13.958686 30.048232 3.489671
v -13.958686 30.048232 -3.489671
v 13.958686 30.048232 -3.489671
v -13.958686 2.130861 -3.489671
v 13.958686 2.130861 -3.489671
vt 0.986965 -0.809644
vt 5.002893 -0.798925
vt 0.361815 2.830528
vt 0.009837 1.802343
vt 4.004829 -0.804009
vt 0.638185 3.106897
vt 0.361815 3.383267
vt 5.021719 1.807527
vt 0.361815 3.659636
vt 0.638185 3.659636
vt 0.989299 -0.809644
vt 0.989299 1.802343
vt 0.007503 -0.809644
vt 0.007503 1.802343
vt 0.638185 3.383267
vt 0.009837 -0.809644
vt 4.004829 1.807527
vt 4.023654 -0.798925
vt 5.021719 -0.804009
vt 0.361815 3.106897
vt 5.002893 1.812612
vt 0.638185 2.830528
vt 4.023654 1.812612
vt 0.986965 1.802343
vn 0.000000 0.000000 1.000000
vn 0.000000 0.000000 1.000000
vn 0.000000 0.000000 1.000000
vn 0.000000 0.000000 1.000000
vn 0.000000 1.000000 0.000000
vn 0.000000 1.000000 0.000000
vn 0.000000 1.000000 0.000000
vn 0.000000 1.000000 0.000000
vn 0.000000 0.000000 -1.000000
vn 0.000000 0.000000 -1.000000
vn 0.000000 0.000000 -1.000000
vn 0.000000 0.000000 -1.000000
vn 0.000000 -1.000000 0.000000
vn 0.000000 -1.000000 0.000000
vn 0.000000 -1.000000 0.000000
vn 0.000000 -1.000000 0.000000
vn 1.000000 0.000000 0.000000
vn 1.000000 0.000000 0.000000
vn 1.000000 0.000000 0.000000
vn 1.000000 0.000000 0.000000
vn -1.000000 0.000000 0.000000
vn -1.000000 0.000000 0.000000
vn -1.000000 0.000000 0.000000
vn -1.000000 0.000000 0.000000
s off
g pCube1
usemtl lambert2SG
f 1/18/1 2/2/2 4/21/3 3/23/4
f 3/3/5 4/22/6 6/6/7 5/20/8
f 5/5/9 6/19/10 8/8/11 7/17/12
f 7/7/13 8/15/14 2/10/15 1/9/16
f 2/16/17 8/11/18 6/12/19 4/4/20
f 7/13/21 1/1/22 3/24/23 5/14/24
