# This file uses centimeters as units for non-parametric coordinates.

mtllib damage_circle.mtl
g default
v 4.829627 -0.000000 -1.294094
v 4.330125 -0.000000 -2.499998
v 3.535532 -0.000000 -3.535532
v 2.499999 -0.000000 -4.330124
v 1.294095 -0.000000 -4.829626
v 0.000001 -0.000000 -4.999997
v -1.294094 -0.000000 -4.829627
v -2.499999 -0.000000 -4.330125
v -3.535532 -0.000000 -3.535533
v -4.330125 -0.000000 -2.500000
v -4.829628 -0.000000 -1.294095
v -4.999999 -0.000000 -0.000000
v -4.829628 -0.000000 1.294095
v -4.330126 -0.000000 2.499999
v -3.535533 -0.000000 3.535533
v -2.500000 -0.000000 4.330126
v -1.294095 -0.000000 4.829628
v -0.000000 -0.000000 4.999999
v 1.294095 -0.000000 4.829628
v 2.500000 -0.000000 4.330127
v 3.535533 -0.000000 3.535534
v 4.330127 -0.000000 2.500000
v 4.829629 -0.000000 1.294095
v 5.000000 -0.000000 0.000000
v 4.829627 1.222035 -1.294094
v 4.330125 1.222035 -2.499998
v 3.535532 1.222035 -3.535532
v 2.499999 1.222035 -4.330124
v 1.294095 1.222035 -4.829626
v 0.000001 1.222035 -4.999997
v -1.294094 1.222035 -4.829627
v -2.499999 1.222035 -4.330125
v -3.535532 1.222035 -3.535533
v -4.330125 1.222035 -2.500000
v -4.829628 1.222035 -1.294095
v -4.999999 1.222035 -0.000000
v -4.829628 1.222035 1.294095
v -4.330126 1.222035 2.499999
v -3.535533 1.222035 3.535533
v -2.500000 1.222035 4.330126
v -1.294095 1.222035 4.829628
v -0.000000 1.222035 4.999999
v 1.294095 1.222035 4.829628
v 2.500000 1.222035 4.330127
v 3.535533 1.222035 3.535534
v 4.330127 1.222035 2.500000
v 4.829629 1.222035 1.294095
v 5.000000 1.222035 0.000000
v 0.000000 -0.000000 0.000000
vt 0.650926 0.514475
vt 0.635316 0.476791
vt 0.610485 0.444431
vt 0.578125 0.419600
vt 0.540440 0.403990
vt 0.500000 0.398666
vt 0.459560 0.403990
vt 0.421875 0.419599
vt 0.389515 0.444431
vt 0.364684 0.476791
vt 0.349074 0.514475
vt 0.343750 0.554916
vt 0.349074 0.595356
vt 0.364684 0.633041
vt 0.389515 0.665401
vt 0.421875 0.690232
vt 0.459560 0.705842
vt 0.500000 0.711166
vt 0.540440 0.705842
vt 0.578125 0.690232
vt 0.610485 0.665401
vt 0.635316 0.633041
vt 0.650926 0.595356
vt 0.656250 0.554916
vt 0.170460 0.004922
vt 0.197922 0.004922
vt 0.225384 0.004922
vt 0.252845 0.004922
vt 0.280307 0.004922
vt 0.307768 0.004922
vt 0.335230 0.004922
vt 0.362692 0.004922
vt 0.390153 0.004922
vt 0.417615 0.004922
vt 0.445076 0.004922
vt 0.472538 0.004922
vt 0.500000 0.004922
vt 0.527461 0.004922
vt 0.554923 0.004922
vt 0.582385 0.004922
vt 0.609846 0.004922
vt 0.637308 0.004922
vt 0.664770 0.004922
vt 0.692231 0.004922
vt 0.719693 0.004922
vt 0.747155 0.004922
vt 0.774616 0.004922
vt 0.802078 0.004922
vt 0.829540 0.004922
vt 0.170460 0.996018
vt 0.197922 0.996018
vt 0.225384 0.996018
vt 0.252845 0.996018
vt 0.280307 0.996018
vt 0.307768 0.996018
vt 0.335230 0.996018
vt 0.362692 0.996018
vt 0.390153 0.996018
vt 0.417615 0.996018
vt 0.445076 0.996018
vt 0.472538 0.996018
vt 0.500000 0.996018
vt 0.527461 0.996018
vt 0.554923 0.996018
vt 0.582385 0.996018
vt 0.609846 0.996018
vt 0.637308 0.996018
vt 0.664770 0.996018
vt 0.692231 0.996018
vt 0.719693 0.996018
vt 0.747155 0.996018
vt 0.774616 0.996018
vt 0.802078 0.996018
vt 0.829540 0.996018
vt 0.500000 0.548666
vn 0.965926 0.000000 -0.258820
vn 0.866026 0.000000 -0.500000
vn 0.866026 0.000000 -0.500000
vn 0.965926 0.000000 -0.258820
vn 0.707107 0.000000 -0.707107
vn 0.707107 0.000000 -0.707107
vn 0.500000 0.000000 -0.866026
vn 0.500000 0.000000 -0.866026
vn 0.258819 0.000000 -0.965926
vn 0.258819 0.000000 -0.965926
vn 0.000000 0.000000 -1.000000
vn 0.000000 0.000000 -1.000000
vn -0.258819 0.000000 -0.965926
vn -0.258819 0.000000 -0.965926
vn -0.500000 0.000000 -0.866026
vn -0.500000 0.000000 -0.866026
vn -0.707107 0.000000 -0.707107
vn -0.707107 0.000000 -0.707107
vn -0.866025 0.000000 -0.500000
vn -0.866025 0.000000 -0.500000
vn -0.965926 0.000000 -0.258819
vn -0.965926 0.000000 -0.258819
vn -1.000000 0.000000 -0.000000
vn -1.000000 0.000000 -0.000000
vn -0.965926 0.000000 0.258819
vn -0.965926 0.000000 0.258819
vn -0.866025 0.000000 0.500000
vn -0.866025 0.000000 0.500000
vn -0.707107 0.000000 0.707107
vn -0.707107 0.000000 0.707107
vn -0.500000 0.000000 0.866025
vn -0.500000 0.000000 0.866025
vn -0.258819 0.000000 0.965926
vn -0.258819 0.000000 0.965926
vn -0.000000 0.000000 1.000000
vn -0.000000 0.000000 1.000000
vn 0.258819 0.000000 0.965926
vn 0.258819 0.000000 0.965926
vn 0.500000 0.000000 0.866026
vn 0.500000 0.000000 0.866026
vn 0.707107 0.000000 0.707107
vn 0.707107 0.000000 0.707107
vn 0.866025 0.000000 0.500000
vn 0.866025 0.000000 0.500000
vn 0.965926 0.000000 0.258819
vn 0.965926 0.000000 0.258819
vn 1.000000 0.000000 -0.000001
vn 1.000000 0.000000 -0.000001
vn 0.000000 -1.000000 0.000000
vn 0.000000 -1.000000 0.000000
vn 0.000000 -1.000000 -0.000000
vn 0.000000 -1.000000 0.000000
vn 0.000000 -1.000000 0.000000
vn 0.000000 -1.000000 0.000000
vn 0.000000 -1.000000 0.000000
vn 0.000000 -1.000000 0.000000
vn 0.000000 -1.000000 0.000000
vn 0.000000 -1.000000 0.000000
vn 0.000000 -1.000000 0.000000
vn 0.000000 -1.000000 0.000000
vn 0.000000 -1.000000 0.000000
vn 0.000000 -1.000000 0.000000
vn 0.000000 -1.000000 0.000000
vn 0.000000 -1.000000 -0.000000
vn 0.000000 -1.000000 -0.000000
vn 0.000000 -1.000000 -0.000000
vn 0.000000 -1.000000 0.000000
vn 0.000000 -1.000000 0.000000
vn 0.000000 -1.000000 0.000000
vn 0.000000 -1.000000 0.000000
vn 0.000000 -1.000000 -0.000000
vn 0.000000 -1.000000 -0.000000
vn 0.000000 -1.000000 0.000000
s 1
g pCylinder1
usemtl lambert8SG
f 1/25/1 2/26/2 26/51/3 25/50/4
f 2/26/2 3/27/5 27/52/6 26/51/3
f 3/27/5 4/28/7 28/53/8 27/52/6
f 4/28/7 5/29/9 29/54/10 28/53/8
f 5/29/9 6/30/11 30/55/12 29/54/10
f 6/30/11 7/31/13 31/56/14 30/55/12
f 7/31/13 8/32/15 32/57/16 31/56/14
f 8/32/15 9/33/17 33/58/18 32/57/16
f 9/33/17 10/34/19 34/59/20 33/58/18
f 10/34/19 11/35/21 35/60/22 34/59/20
f 11/35/21 12/36/23 36/61/24 35/60/22
f 12/36/23 13/37/25 37/62/26 36/61/24
f 13/37/25 14/38/27 38/63/28 37/62/26
f 14/38/27 15/39/29 39/64/30 38/63/28
f 15/39/29 16/40/31 40/65/32 39/64/30
f 16/40/31 17/41/33 41/66/34 40/65/32
f 17/41/33 18/42/35 42/67/36 41/66/34
f 18/42/35 19/43/37 43/68/38 42/67/36
f 19/43/37 20/44/39 44/69/40 43/68/38
f 20/44/39 21/45/41 45/70/42 44/69/40
f 21/45/41 22/46/43 46/71/44 45/70/42
f 22/46/43 23/47/45 47/72/46 46/71/44
f 23/47/45 24/48/47 48/73/48 47/72/46
f 24/48/47 1/49/1 25/74/4 48/73/48
s 2
f 2/2/49 1/1/50 49/75/51
f 3/3/52 2/2/49 49/75/51
f 4/4/53 3/3/52 49/75/51
f 5/5/54 4/4/53 49/75/51
f 6/6/55 5/5/54 49/75/51
f 7/7/56 6/6/55 49/75/51
f 8/8/57 7/7/56 49/75/51
f 9/9/58 8/8/57 49/75/51
f 10/10/59 9/9/58 49/75/51
f 11/11/60 10/10/59 49/75/51
f 12/12/61 11/11/60 49/75/51
f 13/13/62 12/12/61 49/75/51
f 14/14/63 13/13/62 49/75/51
f 15/15/64 14/14/63 49/75/51
f 16/16/65 15/15/64 49/75/51
f 17/17/66 16/16/65 49/75/51
f 18/18/67 17/17/66 49/75/51
f 19/19/68 18/18/67 49/75/51
f 20/20/69 19/19/68 49/75/51
f 21/21/70 20/20/69 49/75/51
f 22/22/71 21/21/70 49/75/51
f 23/23/72 22/22/71 49/75/51
f 24/24/73 23/23/72 49/75/51
f 1/1/50 24/24/73 49/75/51
