# This file uses centimeters as units for non-parametric coordinates.

mtllib haguruma_hontai.mtl
g default
v 0.000000 -0.000000 -0.182081
v -0.043449 -0.117654 -0.321164
v -1.470330 -0.248680 0.487607
v -1.513779 -0.366334 0.348524
v 0.955788 -1.144632 0.487607
v 0.912339 -1.262286 0.348524
vt 0.510949 0.612523
vt 0.463497 0.595000
vt 0.363201 0.001992
vt 0.410652 0.019516
vt 0.049301 0.998008
vt 0.001849 0.980484
vt 0.926271 0.980484
vt 0.878819 0.998008
vt 0.517467 0.019516
vt 0.564919 0.001992
vn -0.370341 0.763019 -0.529763
vn -0.370341 0.763019 -0.529763
vn -0.370341 0.763019 -0.529763
vn -0.370341 0.763019 -0.529763
vn -0.257271 -0.696656 0.669688
vn -0.257271 -0.696656 0.669688
vn -0.257271 -0.696656 0.669688
vn -0.257271 -0.696656 0.669688
vn 0.777375 0.339174 -0.529764
vn 0.777375 0.339174 -0.529764
vn 0.777375 0.339174 -0.529764
vn 0.777375 0.339174 -0.529764
vn -0.231998 -0.628219 -0.742643
vn -0.231998 -0.628219 -0.742643
vn -0.231998 -0.628219 -0.742643
vn 0.231998 0.628219 0.742643
vn 0.231998 0.628219 0.742643
vn 0.231998 0.628219 0.742643
s off
g pCube2 group2 group1
usemtl lambert2SG
f 1/1/1 2/2/2 4/3/3 3/4/4
f 3/7/5 4/8/6 6/9/7 5/10/8
f 5/5/9 6/6/10 2/2/11 1/1/12
f 2/2/13 6/6/14 4/3/15
f 5/5/16 1/1/17 3/4/18
g default
v -0.000000 0.000000 -0.182081
v -0.080167 0.096455 -0.321164
v 0.519802 1.397683 0.487607
v 0.439635 1.494138 0.348524
v -1.469174 -0.255421 0.487607
v -1.549341 -0.158966 0.348524
vt 0.001636 0.021223
vt 0.024774 0.001992
vt 0.086047 0.354434
vt 0.062909 0.373665
vt 0.421340 0.479130
vt 0.398201 0.498361
vt 0.796310 0.501639
vt 0.819449 0.520870
vt 0.422884 0.998008
vt 0.399745 0.978777
vn 0.845964 -0.060785 -0.529764
vn 0.845964 -0.060785 -0.529764
vn 0.845964 -0.060785 -0.529764
vn 0.845964 -0.060785 -0.529764
vn -0.474686 0.571131 0.669688
vn -0.474686 0.571131 0.669688
vn -0.474686 0.571131 0.669688
vn -0.474686 0.571131 0.669688
vn -0.094954 -0.842813 -0.529763
vn -0.094954 -0.842813 -0.529763
vn -0.094954 -0.842813 -0.529763
vn -0.094954 -0.842813 -0.529763
vn -0.428055 0.515025 -0.742643
vn -0.428055 0.515025 -0.742643
vn -0.428055 0.515025 -0.742643
vn 0.428055 -0.515026 0.742643
vn 0.428055 -0.515025 0.742643
vn 0.428055 -0.515026 0.742643
s off
g group2 group1 pCube1
usemtl lambert2SG
f 7/14/19 8/13/20 10/15/21 9/16/22
f 9/17/23 10/18/24 12/19/25 11/20/26
f 11/11/27 12/12/28 8/13/29 7/14/30
f 8/13/31 12/12/32 10/15/33
f 11/11/34 7/14/35 9/16/36
g default
v -0.050680 0.295525 -0.326189
v -0.281272 0.103872 -0.326189
v -0.230592 -0.191652 -0.326189
v 0.050680 -0.295525 -0.326189
v 0.281272 -0.103872 -0.326189
v 0.230592 0.191652 -0.326189
v -0.050680 0.295525 -0.148258
v -0.281272 0.103872 -0.148258
v -0.230592 -0.191652 -0.148258
v 0.050680 -0.295525 -0.148258
v 0.281272 -0.103872 -0.148258
v 0.230592 0.191652 -0.148258
v 0.000000 -0.000000 -0.326189
v 0.000000 -0.000000 -0.148258
vt 0.466704 0.406694
vt 0.365760 0.406694
vt 0.315287 0.494115
vt 0.365760 0.581535
vt 0.466704 0.581535
vt 0.517176 0.494115
vt 0.375000 0.312500
vt 0.416667 0.312500
vt 0.458333 0.312500
vt 0.500000 0.312500
vt 0.541667 0.312500
vt 0.583333 0.312500
vt 0.625000 0.312500
vt 0.375000 0.688440
vt 0.416667 0.688440
vt 0.458333 0.688440
vt 0.500000 0.688440
vt 0.541667 0.688440
vt 0.583333 0.688440
vt 0.625000 0.688440
vt 0.578125 0.708434
vt 0.421875 0.708434
vt 0.343750 0.843750
vt 0.421875 0.979066
vt 0.578125 0.979066
vt 0.656250 0.843750
vt 0.416232 0.490077
vt 0.500000 0.837500
vn -0.639185 0.769053 -0.000000
vn -0.639185 0.769053 -0.000000
vn -0.639185 0.769053 -0.000000
vn -0.639185 0.769053 -0.000000
vn -0.985612 -0.169024 0.000000
vn -0.985612 -0.169024 0.000000
vn -0.985612 -0.169024 0.000000
vn -0.985612 -0.169024 0.000000
vn -0.346427 -0.938077 0.000000
vn -0.346427 -0.938077 0.000000
vn -0.346427 -0.938077 0.000000
vn -0.346427 -0.938077 0.000000
vn 0.639185 -0.769053 0.000000
vn 0.639185 -0.769053 0.000000
vn 0.639185 -0.769053 0.000000
vn 0.639185 -0.769053 0.000000
vn 0.985612 0.169024 0.000000
vn 0.985612 0.169024 0.000000
vn 0.985612 0.169024 0.000000
vn 0.985612 0.169024 0.000000
vn 0.346427 0.938077 0.000000
vn 0.346427 0.938077 0.000000
vn 0.346427 0.938077 0.000000
vn 0.346427 0.938077 0.000000
vn 0.000000 -0.000000 -1.000000
vn 0.000000 -0.000000 -1.000000
vn 0.000000 -0.000000 -1.000000
vn 0.000000 -0.000000 -1.000000
vn 0.000000 0.000000 -1.000000
vn 0.000000 0.000000 -1.000000
vn 0.000000 -0.000000 -1.000000
vn 0.000000 0.000000 1.000000
vn 0.000000 0.000000 1.000000
vn 0.000000 0.000000 1.000000
vn 0.000000 0.000000 1.000000
vn 0.000000 0.000000 1.000000
vn 0.000000 0.000000 1.000000
vn 0.000000 0.000000 1.000000
s off
g group2 group1 pCylinder1
usemtl lambert3SG
f 13/27/37 14/28/38 20/35/39 19/34/40
f 14/28/41 15/29/42 21/36/43 20/35/44
f 15/29/45 16/30/46 22/37/47 21/36/48
f 16/30/49 17/31/50 23/38/51 22/37/52
f 17/31/53 18/32/54 24/39/55 23/38/56
f 18/32/57 13/33/58 19/40/59 24/39/60
s 1
f 14/22/61 13/21/62 25/47/63
f 15/23/64 14/22/61 25/47/63
f 16/24/65 15/23/64 25/47/63
f 17/25/66 16/24/65 25/47/63
f 18/26/67 17/25/66 25/47/63
f 13/21/62 18/26/67 25/47/63
s 2
f 19/45/68 20/44/69 26/48/70
f 20/44/69 21/43/71 26/48/70
f 21/43/71 22/42/72 26/48/70
f 22/42/72 23/41/73 26/48/70
f 23/41/73 24/46/74 26/48/70
f 24/46/74 19/45/68 26/48/70
g default
v -0.038026 0.221739 -0.389757
v -0.211045 0.077938 -0.389757
v -0.173019 -0.143802 -0.389757
v 0.038026 -0.221739 -0.389757
v 0.211045 -0.077938 -0.389757
v 0.173019 0.143801 -0.389757
v -0.038026 0.221739 -0.211826
v -0.211045 0.077938 -0.211826
v -0.173019 -0.143802 -0.211826
v 0.038026 -0.221739 -0.211826
v 0.211045 -0.077938 -0.211826
v 0.173019 0.143801 -0.211826
v 0.000000 0.000000 -0.389757
v 0.000000 0.000000 -0.211826
vt 1.260937 0.071425
vt 0.593498 0.071425
vt 0.259779 0.527622
vt 0.593498 0.983819
vt 1.260936 0.983819
vt 1.594656 0.527622
vt 0.375000 0.312500
vt 0.416667 0.312500
vt 0.458333 0.312500
vt 0.500000 0.312500
vt 0.541667 0.312500
vt 0.583333 0.312500
vt 0.625000 0.312500
vt 0.375000 0.688440
vt 0.416667 0.688440
vt 0.458333 0.688440
vt 0.500000 0.688440
vt 0.541667 0.688440
vt 0.583333 0.688440
vt 0.625000 0.688440
vt 0.578125 0.708434
vt 0.421875 0.708434
vt 0.343750 0.843750
vt 0.421875 0.979066
vt 0.578125 0.979066
vt 0.656250 0.843750
vt 0.927217 0.506551
vt 0.500000 0.837500
vn -0.639186 0.769052 -0.000000
vn -0.639186 0.769052 -0.000000
vn -0.639186 0.769052 -0.000000
vn -0.639186 0.769052 -0.000000
vn -0.985612 -0.169023 0.000000
vn -0.985612 -0.169023 0.000000
vn -0.985612 -0.169023 0.000000
vn -0.985612 -0.169023 0.000000
vn -0.346426 -0.938077 0.000000
vn -0.346426 -0.938077 0.000000
vn -0.346426 -0.938077 0.000000
vn -0.346426 -0.938077 0.000000
vn 0.639184 -0.769054 0.000000
vn 0.639184 -0.769054 0.000000
vn 0.639184 -0.769054 0.000000
vn 0.639184 -0.769054 0.000000
vn 0.985612 0.169024 0.000000
vn 0.985612 0.169024 0.000000
vn 0.985612 0.169024 0.000000
vn 0.985612 0.169024 0.000000
vn 0.346428 0.938076 0.000000
vn 0.346428 0.938077 0.000000
vn 0.346428 0.938076 0.000000
vn 0.346428 0.938076 0.000000
vn 0.000000 -0.000001 -1.000000
vn 0.000001 -0.000000 -1.000000
vn 0.000000 -0.000000 -1.000000
vn -0.000000 -0.000000 -1.000000
vn -0.000001 0.000000 -1.000000
vn -0.000000 0.000001 -1.000000
vn 0.000000 0.000000 -1.000000
vn -0.000000 0.000000 1.000000
vn -0.000000 0.000000 1.000000
vn -0.000000 -0.000000 1.000000
vn -0.000000 -0.000000 1.000000
vn 0.000000 -0.000000 1.000000
vn 0.000000 -0.000000 1.000000
vn 0.000000 0.000000 1.000000
s off
g group2 group1 pCylinder2
usemtl lambert3SG
f 27/55/75 28/56/76 34/63/77 33/62/78
f 28/56/79 29/57/80 35/64/81 34/63/82
f 29/57/83 30/58/84 36/65/85 35/64/86
f 30/58/87 31/59/88 37/66/89 36/65/90
f 31/59/91 32/60/92 38/67/93 37/66/94
f 32/60/95 27/61/96 33/68/97 38/67/98
s 1
f 28/50/99 27/49/100 39/75/101
f 29/51/102 28/50/99 39/75/101
f 30/52/103 29/51/102 39/75/101
f 31/53/104 30/52/103 39/75/101
f 32/54/105 31/53/104 39/75/101
f 27/49/100 32/54/105 39/75/101
s 2
f 33/73/106 34/72/107 40/76/108
f 34/72/107 35/71/109 40/76/108
f 35/71/109 36/70/110 40/76/108
f 36/70/110 37/69/111 40/76/108
f 37/69/111 38/74/112 40/76/108
f 38/74/112 33/73/106 40/76/108
g default
v 0.000000 -0.000000 -0.182081
v 0.123616 0.021199 -0.321164
v 0.950528 -1.149003 0.487607
v 1.074144 -1.127804 0.348524
v 0.513386 1.400052 0.487607
v 0.637002 1.421252 0.348524
vt 0.417928 0.447250
vt 0.370025 0.455465
vt 0.001679 0.010207
vt 0.049583 0.001992
vt 0.218982 0.989793
vt 0.171079 0.998008
vt 0.793486 0.001992
vt 0.841389 0.010207
vt 0.671990 0.998008
vt 0.624087 0.989793
vt 0.425141 0.447250
vn -0.475623 -0.702234 -0.529763
vn -0.475623 -0.702234 -0.529763
vn -0.475623 -0.702234 -0.529763
vn -0.475623 -0.702234 -0.529763
vn 0.731958 0.125525 0.669688
vn 0.731958 0.125525 0.669688
vn 0.731958 0.125525 0.669688
vn 0.731958 0.125525 0.669688
vn -0.682421 0.503640 -0.529763
vn -0.682421 0.503640 -0.529763
vn -0.682421 0.503640 -0.529763
vn -0.682421 0.503640 -0.529763
vn 0.660053 0.113193 -0.742642
vn 0.660053 0.113193 -0.742643
vn 0.660053 0.113193 -0.742643
vn -0.660053 -0.113193 0.742643
vn -0.660053 -0.113193 0.742642
vn -0.660053 -0.113193 0.742643
s off
g group2 group1 pCube3
usemtl lambert2SG
f 41/77/113 42/78/114 44/79/115 43/80/116
f 43/83/117 44/84/118 46/85/119 45/86/120
f 45/81/121 46/82/122 42/78/123 41/77/124
f 42/78/125 46/82/126 44/79/127
f 45/86/128 41/87/129 43/83/130
