# This file uses centimeters as units for non-parametric coordinates.

mtllib MOB_moth_Body.mtl
g default
v 0.046465 -0.040879 -0.030003
v -0.046465 -0.040879 -0.030003
v 0.008906 0.153802 -0.012719
v -0.008906 0.153802 -0.012719
v 0.008906 0.157182 0.012017
v -0.008906 0.157182 0.012017
v 0.046465 -0.040879 0.019798
v -0.046465 -0.040879 0.019798
v 0.005514 -0.188513 0.006707
v -0.005514 -0.188513 0.006707
v -0.005514 -0.188514 -0.009337
v 0.005514 -0.188514 -0.009337
v 0.033940 0.058038 -0.024598
v 0.033940 0.058038 0.017774
v -0.033940 0.058038 0.017774
v -0.033940 0.058038 -0.024598
v 0.024909 0.129419 0.015725
v 0.024909 0.129419 -0.024920
v -0.024909 0.129419 -0.024920
v -0.024909 0.129419 0.015725
v 0.022154 0.094423 -0.017907
v 0.022154 0.094423 0.013258
v -0.022154 0.094423 0.013258
v -0.022154 0.094423 -0.017907
v 0.008906 0.155141 -0.002630
v 0.024909 0.129419 -0.002630
v 0.022154 0.094423 -0.002630
v 0.033940 0.058038 -0.002630
v 0.046465 -0.040879 -0.002630
v 0.005514 -0.188514 -0.002630
v -0.005514 -0.188514 -0.002630
v -0.046465 -0.040879 -0.002630
v -0.033940 0.058038 -0.002630
v -0.022154 0.094423 -0.002630
v -0.024909 0.129419 -0.002630
v -0.008906 0.155141 -0.002630
vt 0.153623 0.285931
vt 0.092895 0.319890
vt 0.063739 0.250023
vt 0.108631 0.223732
vt 0.049141 0.170451
vt 0.039103 0.179931
vt 0.033763 0.174823
vt 0.043213 0.165088
vt 0.035446 0.897975
vt 0.062319 0.874547
vt 0.100860 0.909633
vt 0.064350 0.941032
vt 0.184400 0.403586
vt 0.177133 0.407655
vt 0.174661 0.403230
vt 0.181920 0.399167
vt 0.073394 0.325685
vt 0.053308 0.253495
vt 0.117058 0.216750
vt 0.168648 0.272257
vt 0.135063 0.981802
vt 0.130723 0.985542
vt 0.171564 0.407238
vt 0.080225 0.336263
vt 0.174202 0.283686
vt 0.186955 0.398621
vt 0.047970 0.162988
vt 0.071226 0.161844
vt 0.072976 0.179126
vt 0.011583 0.850174
vt 0.018577 0.844144
vt 0.034321 0.849736
vt 0.014793 0.866572
vt 0.045759 0.199385
vt 0.031295 0.202936
vt 0.031297 0.179438
vt 0.099303 0.194362
vt 0.087104 0.202738
vt 0.057443 0.221765
vt 0.043547 0.226941
vt 0.025010 0.881819
vt 0.047915 0.862033
vt 0.086444 0.171473
vt 0.070285 0.147948
vt 0.045985 0.151509
vt 0.110132 0.186909
vt 0.097946 0.164097
vt 0.125954 0.209348
vt 0.181057 0.261138
vt 0.190815 0.281879
vt 0.193967 0.397860
vt 0.187848 0.409742
vt 0.180579 0.413812
vt 0.070002 0.349483
vt 0.167250 0.412818
vt 0.057428 0.330460
vt 0.042285 0.257137
vt 0.031322 0.231753
vt 0.018852 0.208315
vt 0.017501 0.203046
vt 0.019596 0.178394
vt 0.025279 0.166896
vt 0.034556 0.157086
vn 0.000000 0.054554 -0.998511
vn 0.000000 0.054554 -0.998511
vn 0.000000 0.075148 -0.997172
vn 0.000000 0.075148 -0.997172
vn -0.000000 0.991308 -0.131560
vn -0.000000 0.991308 -0.131560
vn -0.000000 0.990794 -0.135381
vn -0.000000 0.990794 -0.135381
vn 0.000000 0.037022 0.999315
vn 0.000000 0.037022 0.999315
vn 0.000000 0.020455 0.999791
vn 0.000000 0.020455 0.999791
vn 0.000000 -1.000000 0.000059
vn 0.000000 -1.000000 0.000059
vn 0.000000 -1.000000 0.000000
vn 0.000000 -1.000000 0.000000
vn -0.992078 0.125624 0.000000
vn -0.992078 0.125624 0.000000
vn -0.985629 0.168925 0.000000
vn -0.986713 0.162471 0.000000
vn 0.985629 0.168925 0.000000
vn 0.992078 0.125624 0.000000
vn 0.992078 0.125624 0.000000
vn 0.986713 0.162471 0.000000
vn 0.000000 -0.088325 0.996092
vn 0.000000 -0.088325 0.996092
vn 0.000000 -0.088325 0.996092
vn 0.000000 -0.088325 0.996092
vn -0.963616 -0.267291 0.000004
vn -0.963616 -0.267291 0.000004
vn -0.963616 -0.267290 0.000000
vn -0.963616 -0.267290 0.000000
vn 0.000000 -0.138625 -0.990345
vn 0.000000 -0.138625 -0.990345
vn 0.000000 -0.138625 -0.990345
vn 0.000000 -0.138625 -0.990345
vn 0.963616 -0.267290 0.000000
vn 0.963616 -0.267291 0.000004
vn 0.963616 -0.267291 0.000004
vn 0.963616 -0.267290 0.000000
vn 0.850506 0.525243 -0.027543
vn 0.980143 0.197890 -0.012615
vn 0.985868 0.167283 -0.009026
vn 0.840039 0.542063 -0.022415
vn 0.000000 0.132370 0.991200
vn 0.000000 0.132370 0.991200
vn 0.000000 -0.012005 0.999928
vn 0.000000 -0.012005 0.999928
vn -0.985868 0.167283 -0.009026
vn -0.980143 0.197890 -0.012615
vn -0.850506 0.525243 -0.027543
vn -0.840039 0.542063 -0.022415
vn 0.000000 -0.019267 -0.999814
vn 0.000000 -0.019267 -0.999814
vn 0.000000 0.447507 -0.894281
vn 0.000000 0.447507 -0.894281
vn 0.991794 0.127843 0.000000
vn 0.985629 0.168925 0.000000
vn 0.986713 0.162471 0.000000
vn 0.992367 0.123319 0.000000
vn 0.000000 0.075148 -0.997172
vn 0.000000 0.075148 -0.997172
vn 0.000000 0.024639 -0.999696
vn 0.000000 0.024639 -0.999696
vn -0.986713 0.162471 0.000000
vn -0.985629 0.168925 0.000000
vn -0.991794 0.127843 0.000000
vn -0.992367 0.123319 0.000000
vn 0.000000 0.043462 0.999055
vn 0.000000 0.043462 0.999055
vn 0.000000 0.037022 0.999315
vn 0.000000 0.037022 0.999315
vn 0.980143 0.197890 -0.012615
vn 0.991794 0.127843 0.000000
vn 0.992367 0.123319 0.000000
vn 0.985868 0.167283 -0.009026
vn 0.000000 -0.012005 0.999928
vn 0.000000 -0.012005 0.999928
vn 0.000000 0.043462 0.999055
vn 0.000000 0.043462 0.999055
vn -0.992367 0.123319 0.000000
vn -0.991794 0.127843 0.000000
vn -0.980143 0.197890 -0.012615
vn -0.985868 0.167283 -0.009026
vn 0.000000 0.024639 -0.999696
vn 0.000000 0.024639 -0.999696
vn 0.000000 -0.019267 -0.999814
vn 0.000000 -0.019267 -0.999814
vn 0.979887 0.198984 -0.015083
vn 0.980143 0.197890 -0.012615
vn 0.850506 0.525243 -0.027543
vn 0.858626 0.511625 -0.031639
vn 0.990983 0.133991 0.000000
vn 0.991794 0.127843 0.000000
vn 0.980143 0.197890 -0.012615
vn 0.979887 0.198984 -0.015083
vn 0.985800 0.167925 0.000000
vn 0.985629 0.168925 0.000000
vn 0.991794 0.127843 0.000000
vn 0.990983 0.133991 0.000000
vn 0.992078 0.125624 0.000000
vn 0.992078 0.125624 0.000000
vn 0.985629 0.168925 0.000000
vn 0.985800 0.167925 0.000000
vn 0.963616 -0.267291 0.000004
vn 0.963616 -0.267291 0.000004
vn 0.963616 -0.267291 0.000008
vn 0.963616 -0.267291 0.000008
vn 0.000000 -1.000000 0.000102
vn 0.000000 -1.000000 0.000102
vn 0.000000 -1.000000 0.000059
vn 0.000000 -1.000000 0.000059
vn -0.963616 -0.267291 0.000008
vn -0.963616 -0.267291 0.000004
vn -0.963616 -0.267291 0.000004
vn -0.963616 -0.267291 0.000008
vn -0.985629 0.168925 0.000000
vn -0.992078 0.125624 0.000000
vn -0.992078 0.125624 0.000000
vn -0.985800 0.167925 0.000000
vn -0.991794 0.127843 0.000000
vn -0.985629 0.168925 0.000000
vn -0.985800 0.167925 0.000000
vn -0.990983 0.133991 0.000000
vn -0.980143 0.197890 -0.012615
vn -0.991794 0.127843 0.000000
vn -0.990983 0.133991 0.000000
vn -0.979887 0.198984 -0.015083
vn -0.850506 0.525243 -0.027543
vn -0.980143 0.197890 -0.012615
vn -0.979887 0.198984 -0.015083
vn -0.858626 0.511625 -0.031639
vn -0.000000 0.990794 -0.135381
vn -0.000000 0.990794 -0.135381
vn -0.000000 0.990431 -0.138009
vn -0.000000 0.990431 -0.138009
s off
g MOB_moth_Body2:Body
usemtl MOB_moth_Body2:lambert3SG
f 1/1/1 2/2/2 16/3/3 13/4/4
f 3/5/5 4/6/6 36/7/7 25/8/8
f 14/9/9 15/10/10 8/11/11 7/12/12
f 30/13/13 31/14/14 11/15/15 12/16/16
f 2/2/17 32/17/18 33/18/19 16/3/20
f 28/19/21 29/20/22 1/1/23 13/4/24
f 7/12/25 8/11/26 10/21/27 9/22/28
f 31/23/29 32/24/30 2/2/31 11/15/32
f 2/2/33 1/1/34 12/16/35 11/15/36
f 1/1/37 29/25/38 30/26/39 12/16/40
f 25/27/41 26/28/42 18/29/43 3/5/44
f 5/30/45 6/31/46 20/32/47 17/33/48
f 19/34/49 35/35/50 36/36/51 4/6/52
f 18/29/53 19/34/54 4/6/55 3/5/56
f 27/37/57 28/19/58 13/4/59 21/38/60
f 13/4/61 16/3/62 24/39/63 21/38/64
f 16/3/65 33/18/66 34/40/67 24/39/68
f 22/41/69 23/42/70 15/10/71 14/9/72
f 26/43/73 27/37/74 21/38/75 18/29/76
f 17/33/77 20/32/78 23/42/79 22/41/80
f 24/39/81 34/40/82 35/35/83 19/34/84
f 21/38/85 24/39/86 19/34/87 18/29/88
f 17/44/89 26/28/90 25/27/91 5/45/92
f 22/46/93 27/37/94 26/43/95 17/47/96
f 14/48/97 28/19/98 27/37/99 22/46/100
f 7/49/101 29/20/102 28/19/103 14/48/104
f 30/26/105 29/25/106 7/50/107 9/51/108
f 9/52/109 10/53/110 31/14/111 30/13/112
f 8/54/113 32/24/114 31/23/115 10/55/116
f 33/18/117 32/17/118 8/56/119 15/57/120
f 34/40/121 33/18/122 15/57/123 23/58/124
f 35/35/125 34/40/126 23/58/127 20/59/128
f 36/36/129 35/35/130 20/60/131 6/61/132
f 25/8/133 36/7/134 6/62/135 5/63/136
g default
v -0.003940 0.151521 0.011111
v -0.005523 0.151521 0.011111
v -0.053288 0.179281 0.020380
v -0.050134 0.172662 0.018172
v -0.053288 0.180612 0.016393
v -0.050134 0.173997 0.014184
v -0.003940 0.152853 0.007123
v -0.005523 0.152853 0.007123
v -0.017081 0.172933 0.018262
v -0.017081 0.174268 0.014274
v -0.017327 0.171972 0.013508
v -0.017327 0.170641 0.017496
v -0.006247 0.162832 0.014888
v -0.006247 0.164159 0.010900
v -0.008235 0.163587 0.010708
v -0.008235 0.162256 0.014695
v -0.047127 0.173956 0.014169
v -0.047127 0.172624 0.018157
v -0.046187 0.170274 0.017372
v -0.046187 0.171606 0.013384
vt 0.300708 0.650632
vt 0.336589 0.683378
vt 0.341516 0.676678
vt 0.305787 0.646851
vt 0.536652 0.676265
vt 0.536749 0.704935
vt 0.588949 0.704758
vt 0.588852 0.676088
vt 0.426326 0.708472
vt 0.461034 0.673968
vt 0.455759 0.670380
vt 0.421079 0.701939
vt 0.470560 0.659962
vt 0.465285 0.656374
vt 0.983485 0.674751
vt 0.904119 0.675020
vt 0.904216 0.703690
vt 0.983582 0.703422
vt 0.986717 0.640286
vt 0.904372 0.640165
vt 0.904331 0.668665
vt 0.986676 0.668786
vt 0.597673 0.639715
vt 0.534342 0.639623
vt 0.534300 0.668123
vt 0.597631 0.668216
vt 0.230522 0.659903
vt 0.266741 0.650234
vt 0.275482 0.644107
vt 0.256637 0.643608
vt 0.620799 0.675980
vt 0.620896 0.704650
vt 0.492374 0.618858
vt 0.528910 0.626666
vt 0.502134 0.611829
vt 0.483446 0.613154
vt 0.801368 0.640014
vt 0.801326 0.668515
vt 0.366093 0.719411
vt 0.370755 0.710795
vt 0.817633 0.675313
vt 0.817730 0.703983
vt 0.396785 0.691675
vt 0.391797 0.683329
vn -0.000172 -0.316739 0.948513
vn -0.000172 -0.316739 0.948513
vn -0.000172 -0.316739 0.948513
vn -0.000172 -0.316739 0.948513
vn -0.911148 -0.390816 -0.130660
vn -0.911148 -0.390816 -0.130660
vn -0.911148 -0.390816 -0.130660
vn -0.911148 -0.390816 -0.130660
vn 0.000279 0.316837 -0.948480
vn 0.000377 0.316847 -0.948477
vn 0.000377 0.316847 -0.948477
vn 0.000250 0.316834 -0.948481
vn 0.000000 -0.948536 -0.316670
vn 0.000000 -0.948536 -0.316670
vn 0.000000 -0.948536 -0.316670
vn 0.000000 -0.948536 -0.316670
vn -0.972462 -0.221069 -0.073805
vn -0.862924 -0.479327 -0.160026
vn -0.862934 -0.479311 -0.160021
vn -0.972461 -0.221069 -0.073805
vn 0.981790 0.180217 0.060079
vn 0.864310 0.477087 0.159234
vn 0.864157 0.477337 0.159317
vn 0.981790 0.180217 0.060079
vn 0.181663 0.932640 0.311738
vn 0.751475 0.625806 0.208932
vn 0.751475 0.625806 0.208932
vn 0.181682 0.932637 0.311737
vn -0.000320 0.316575 -0.948567
vn -0.000080 0.316575 -0.948568
vn 0.000005 0.316575 -0.948568
vn -0.000320 0.316575 -0.948567
vn -0.064931 -0.946518 -0.316049
vn -0.538221 -0.799316 -0.267230
vn -0.538221 -0.799316 -0.267230
vn -0.064903 -0.946520 -0.316050
vn 0.000201 -0.316630 0.948549
vn 0.000746 -0.316271 0.948669
vn 0.000746 -0.316271 0.948669
vn 0.000006 -0.316758 0.948506
vn 0.864310 0.477087 0.159234
vn 0.244783 0.919582 0.307329
vn 0.244924 0.919548 0.307318
vn 0.864157 0.477337 0.159317
vn 0.000052 0.316620 -0.948552
vn 0.000279 0.316837 -0.948480
vn 0.000250 0.316834 -0.948481
vn 0.000072 0.316656 -0.948541
vn -0.862924 -0.479327 -0.160026
vn -0.217409 -0.925847 -0.309096
vn -0.217416 -0.925846 -0.309095
vn -0.862934 -0.479311 -0.160021
vn -0.000077 -0.316792 0.948495
vn -0.000052 -0.316803 0.948491
vn -0.000059 -0.316813 0.948488
vn -0.000081 -0.316810 0.948489
vn 0.244783 0.919582 0.307329
vn 0.181663 0.932640 0.311738
vn 0.181682 0.932637 0.311737
vn 0.244924 0.919548 0.307318
vn -0.000052 -0.316803 0.948491
vn 0.000201 -0.316630 0.948549
vn 0.000006 -0.316758 0.948506
vn -0.000059 -0.316813 0.948488
vn -0.217409 -0.925847 -0.309096
vn -0.064931 -0.946518 -0.316049
vn -0.064903 -0.946520 -0.316050
vn -0.217416 -0.925846 -0.309095
vn -0.000080 0.316575 -0.948568
vn 0.000052 0.316620 -0.948552
vn 0.000072 0.316656 -0.948541
vn 0.000005 0.316575 -0.948568
s off
g MOB_moth_Body3:Bodysyokkaku_L
usemtl initialShadingGroup
f 37/64/137 49/65/138 52/66/139 38/67/140
f 39/68/141 41/69/142 42/70/143 40/71/144
f 50/72/145 43/73/146 44/74/147 51/75/148
f 43/73/149 37/76/150 38/77/151 44/74/152
f 38/78/153 52/79/154 51/80/155 44/81/156
f 43/82/157 50/83/158 49/84/159 37/85/160
f 53/86/161 41/87/162 39/88/163 54/89/164
f 41/90/165 53/91/166 56/92/167 42/93/168
f 55/94/169 40/71/170 42/70/171 56/95/172
f 54/96/173 39/97/174 40/98/175 55/99/176
f 50/83/177 46/100/178 45/101/179 49/84/180
f 46/102/181 50/72/182 51/75/183 47/103/184
f 52/79/185 48/104/186 47/105/187 51/80/188
f 49/65/189 45/106/190 48/107/191 52/66/192
f 46/100/193 53/86/194 54/89/195 45/101/196
f 45/106/197 54/96/198 55/99/199 48/107/200
f 48/104/201 55/94/202 56/95/203 47/105/204
f 53/91/205 46/102/206 47/103/207 56/92/208
g default
v 0.003940 0.151521 0.011111
v 0.005523 0.151521 0.011111
v 0.053288 0.179281 0.020380
v 0.050134 0.172662 0.018172
v 0.053288 0.180612 0.016393
v 0.050134 0.173997 0.014184
v 0.003940 0.152853 0.007123
v 0.005523 0.152853 0.007123
v 0.017081 0.172933 0.018262
v 0.017081 0.174268 0.014274
v 0.017327 0.171972 0.013508
v 0.017327 0.170641 0.017496
v 0.006247 0.162832 0.014888
v 0.006247 0.164159 0.010900
v 0.008235 0.163587 0.010708
v 0.008235 0.162256 0.014695
v 0.047127 0.173956 0.014169
v 0.047127 0.172624 0.018157
v 0.046187 0.170274 0.017372
v 0.046187 0.171606 0.013384
vt 0.394170 0.628599
vt 0.389116 0.632413
vt 0.353193 0.602819
vt 0.358077 0.596087
vt 0.539839 0.598184
vt 0.592039 0.598008
vt 0.592136 0.626678
vt 0.539936 0.626855
vt 0.268178 0.571578
vt 0.273468 0.578076
vt 0.238994 0.609860
vt 0.233696 0.606307
vt 0.229559 0.623929
vt 0.224261 0.620375
vt 0.986672 0.596671
vt 0.986769 0.625341
vt 0.907403 0.625610
vt 0.907306 0.596940
vt 0.989904 0.562205
vt 0.989863 0.590706
vt 0.907517 0.590585
vt 0.907559 0.562085
vt 0.600860 0.561635
vt 0.600818 0.590136
vt 0.537487 0.590043
vt 0.537529 0.561542
vt 0.464294 0.618872
vt 0.438286 0.635337
vt 0.419438 0.634960
vt 0.428139 0.628776
vt 0.623986 0.597899
vt 0.624083 0.626570
vt 0.202715 0.661620
vt 0.211680 0.667266
vt 0.193001 0.668712
vt 0.166129 0.654050
vt 0.804513 0.590434
vt 0.804555 0.561934
vt 0.328338 0.560247
vt 0.323733 0.568893
vt 0.820917 0.625903
vt 0.820820 0.597233
vt 0.302871 0.596496
vt 0.297828 0.588182
vn 0.000172 -0.316740 0.948512
vn 0.000172 -0.316740 0.948512
vn 0.000172 -0.316740 0.948512
vn 0.000172 -0.316740 0.948512
vn 0.911148 -0.390816 -0.130660
vn 0.911148 -0.390816 -0.130660
vn 0.911148 -0.390816 -0.130660
vn 0.911148 -0.390816 -0.130660
vn -0.000279 0.316836 -0.948480
vn -0.000250 0.316833 -0.948481
vn -0.000377 0.316845 -0.948477
vn -0.000377 0.316845 -0.948477
vn 0.000000 -0.948536 -0.316670
vn 0.000000 -0.948536 -0.316670
vn 0.000000 -0.948536 -0.316670
vn 0.000000 -0.948536 -0.316670
vn 0.972462 -0.221069 -0.073805
vn 0.972461 -0.221069 -0.073805
vn 0.862934 -0.479311 -0.160021
vn 0.862924 -0.479327 -0.160026
vn -0.981790 0.180217 0.060079
vn -0.981790 0.180217 0.060079
vn -0.864157 0.477337 0.159318
vn -0.864310 0.477088 0.159234
vn -0.181663 0.932640 0.311738
vn -0.181682 0.932637 0.311737
vn -0.751475 0.625806 0.208932
vn -0.751475 0.625806 0.208932
vn 0.000320 0.316580 -0.948566
vn 0.000320 0.316580 -0.948566
vn -0.000005 0.316577 -0.948567
vn 0.000080 0.316578 -0.948566
vn 0.064931 -0.946518 -0.316049
vn 0.064903 -0.946520 -0.316050
vn 0.538221 -0.799316 -0.267230
vn 0.538221 -0.799316 -0.267230
vn -0.000201 -0.316632 0.948548
vn -0.000006 -0.316761 0.948505
vn -0.000746 -0.316271 0.948669
vn -0.000746 -0.316271 0.948669
vn -0.864310 0.477088 0.159234
vn -0.864157 0.477337 0.159318
vn -0.244924 0.919548 0.307318
vn -0.244783 0.919582 0.307329
vn -0.000052 0.316622 -0.948552
vn -0.000072 0.316657 -0.948540
vn -0.000250 0.316833 -0.948481
vn -0.000279 0.316836 -0.948480
vn 0.862924 -0.479327 -0.160026
vn 0.862934 -0.479311 -0.160021
vn 0.217416 -0.925846 -0.309095
vn 0.217409 -0.925847 -0.309096
vn 0.000077 -0.316792 0.948495
vn 0.000080 -0.316810 0.948489
vn 0.000059 -0.316815 0.948487
vn 0.000052 -0.316805 0.948491
vn -0.244783 0.919582 0.307329
vn -0.244924 0.919548 0.307318
vn -0.181682 0.932637 0.311737
vn -0.181663 0.932640 0.311738
vn 0.000052 -0.316805 0.948491
vn 0.000059 -0.316815 0.948487
vn -0.000006 -0.316761 0.948505
vn -0.000201 -0.316632 0.948548
vn 0.217409 -0.925847 -0.309096
vn 0.217416 -0.925846 -0.309095
vn 0.064903 -0.946520 -0.316050
vn 0.064931 -0.946518 -0.316049
vn 0.000080 0.316578 -0.948566
vn -0.000005 0.316577 -0.948567
vn -0.000072 0.316657 -0.948540
vn -0.000052 0.316622 -0.948552
s off
g MOB_moth_Body3:Bodysyokkaku_R
usemtl initialShadingGroup
f 57/108/209 58/109/210 72/110/211 69/111/212
f 59/112/213 60/113/214 62/114/215 61/115/216
f 70/116/217 71/117/218 64/118/219 63/119/220
f 63/119/221 64/118/222 58/120/223 57/121/224
f 58/122/225 64/123/226 71/124/227 72/125/228
f 63/126/229 57/127/230 69/128/231 70/129/232
f 73/130/233 74/131/234 59/132/235 61/133/236
f 61/134/237 62/135/238 76/136/239 73/137/240
f 75/138/241 76/139/242 62/114/243 60/113/244
f 74/140/245 75/141/246 60/142/247 59/143/248
f 70/129/249 69/128/250 65/144/251 66/145/252
f 66/146/253 67/147/254 71/117/255 70/116/256
f 72/125/257 71/124/258 67/148/259 68/149/260
f 69/111/261 72/110/262 68/150/263 65/151/264
f 66/145/265 65/144/266 74/131/267 73/130/268
f 65/151/269 68/150/270 75/141/271 74/140/272
f 68/149/273 67/148/274 76/139/275 75/138/276
f 73/137/277 76/136/278 67/147/279 66/146/280
