# This file uses centimeters as units for non-parametric coordinates.

mtllib beniya_wall_01.mtl
g default
v -2.000000 0.648160 0.500000
v 2.000000 0.648160 0.500000
v -2.000000 3.648160 0.500000
v 2.000000 3.648160 0.500000
v -2.000000 3.648160 -0.500000
v 2.000000 3.648160 -0.500000
v -2.000000 0.648160 -0.500000
v 2.000000 0.648160 -0.500000
vt -0.016369 -6.438192
vt 0.853450 -6.438192
vt 0.146550 -2.969096
vt 1.048954 -2.969096
vt 0.146550 0.500000
vt 0.853450 0.500000
vt 0.146550 3.969096
vt 0.853450 3.969096
vt 0.146550 7.438192
vt 0.853450 7.438192
vt 1.755854 -6.438192
vt 1.755854 -2.969096
vt -0.723270 -6.438192
vt -0.723270 -2.969096
vt 0.853450 3.969096
vt 1.048954 -6.438192
vt 0.146550 3.969096
vt 0.146550 -6.438192
vt 0.853450 0.500000
vt 0.146550 0.500000
vt 0.853450 -2.969096
vt 0.853450 -2.969096
vt 0.146550 -2.969096
vt -0.016369 -2.969096
vn 0.000000 0.000000 1.000000
vn 0.000000 0.000000 1.000000
vn 0.000000 0.000000 1.000000
vn 0.000000 0.000000 1.000000
vn 0.000000 1.000000 0.000000
vn 0.000000 1.000000 0.000000
vn 0.000000 1.000000 0.000000
vn 0.000000 1.000000 0.000000
vn 0.000000 0.000000 -1.000000
vn 0.000000 0.000000 -1.000000
vn 0.000000 0.000000 -1.000000
vn 0.000000 0.000000 -1.000000
vn 0.000000 -1.000000 0.000000
vn 0.000000 -1.000000 0.000000
vn 0.000000 -1.000000 0.000000
vn 0.000000 -1.000000 0.000000
vn 1.000000 0.000000 0.000000
vn 1.000000 0.000000 0.000000
vn 1.000000 0.000000 0.000000
vn 1.000000 0.000000 0.000000
vn -1.000000 0.000000 0.000000
vn -1.000000 0.000000 0.000000
vn -1.000000 0.000000 0.000000
vn -1.000000 0.000000 0.000000
s off
g pCube1
usemtl lambert2SG
f 1/18/1 2/2/2 4/21/3 3/23/4
f 3/3/5 4/22/6 6/6/7 5/20/8
f 5/5/9 6/19/10 8/8/11 7/17/12
f 7/7/13 8/15/14 2/10/15 1/9/16
f 2/16/17 8/11/18 6/12/19 4/4/20
f 7/13/21 1/1/22 3/24/23 5/14/24
