# This file uses centimeters as units for non-parametric coordinates.

mtllib cardboard1.mtl
g default
v 0.500000 -0.062500 -0.866025
v -0.250000 -0.062500 -0.433013
v -1.000000 -0.062500 -0.000000
v -0.500000 -0.062500 0.866025
v 0.000000 -0.062500 0.000000
v 0.500000 0.062500 -0.866025
v -0.250000 0.062500 -0.433013
v -1.000000 0.062500 -0.000000
v -0.500000 0.062500 0.866025
v 0.000000 0.062500 0.000000
v 0.756088 0.062500 -0.422468
v 0.755676 -0.062500 -0.423182
vt 9.579569 -0.907646
vt -1.789555 -0.607877
vt -13.158408 -0.392025
vt -5.579083 -0.040576
vt 2.001108 -0.440356
vt -10.126678 -0.050560
vt -6.084373 0.000002
vt -2.042068 0.013793
vt 2.000236 0.013793
vt 6.042669 -0.001988
vt 14.127158 -0.050560
vt -10.126678 1.054550
vt -6.084373 1.005591
vt -2.042068 0.990197
vt 2.000236 0.990197
vt 6.042750 1.011642
vt 14.127158 1.054550
vt 2.001108 1.427704
vt -5.579081 1.042125
vt -13.158408 1.393574
vt -1.789555 1.603625
vt 9.579563 1.908873
vt 13.461514 1.715323
vt 12.056791 1.059225
vt 12.060109 -0.055251
vt 13.455268 -0.714484
vn -0.500000 0.000000 -0.866026
vn -0.500000 0.000000 -0.866026
vn -0.500000 0.000000 -0.866026
vn -0.500000 0.000000 -0.866026
vn -0.500000 0.000000 -0.866026
vn -0.500000 0.000000 -0.866026
vn -0.500000 0.000000 -0.866026
vn -0.500000 0.000000 -0.866026
vn -0.866026 0.000000 0.500000
vn -0.866026 0.000000 0.500000
vn -0.866026 0.000000 0.500000
vn -0.866026 0.000000 0.500000
vn 0.866025 0.000000 0.500000
vn 0.866025 0.000000 0.500000
vn 0.866025 0.000000 0.500000
vn 0.866025 0.000000 0.500000
vn 0.427838 0.869150 0.248061
vn 0.428740 -0.869153 0.246486
vn 0.866026 0.000000 -0.500000
vn 0.866026 0.000000 -0.500000
vn 0.000000 -1.000000 0.000000
vn 0.000000 -1.000000 0.000000
vn 0.079806 -0.986548 0.142669
vn 0.000000 -1.000000 0.000000
vn 0.000000 -1.000000 0.000000
vn 0.000000 1.000000 0.000000
vn 0.000000 1.000000 -0.000000
vn 0.079860 0.986529 0.142766
vn 0.000000 1.000000 -0.000000
vn 0.000000 1.000000 0.000000
s off
g pCylinder1
usemtl lambert3SG
f 1/6/1 2/7/2 7/13/3 6/12/4
f 2/7/5 3/8/6 8/14/7 7/13/8
usemtl lambert2SG
f 3/8/9 4/9/10 9/15/11 8/14/12
f 4/9/13 5/10/14 10/16/15 9/15/16
s 1
f 11/24/17 12/25/18 1/11/19 6/17/20
f 2/2/21 1/1/22 5/5/23
f 3/3/24 2/2/21 5/5/23
f 4/4/25 3/3/24 5/5/23
f 6/22/26 7/21/27 10/18/28
f 7/21/27 8/20/29 10/18/28
f 8/20/29 9/19/30 10/18/28
f 10/18/28 11/23/17 6/22/26
f 1/1/22 12/26/18 5/5/23
usemtl lambert3SG
f 5/10/23 12/25/18 11/24/17 10/16/28
