# This file uses centimeters as units for non-parametric coordinates.

mtllib yazirusi.mtl
g default
v 0.000277 -0.204678 0.799850
v 0.301288 -0.204678 0.241916
v 0.000277 0.204678 0.799850
v 0.301288 0.204678 0.241916
v -0.298861 0.204678 0.233080
v 0.000772 0.204678 0.503192
v -0.298861 -0.204678 0.233080
v 0.000772 -0.204678 0.503192
vt 0.238516 0.604475
vt 0.294909 0.604475
vt 0.294909 0.660868
vt 0.238516 0.660868
vt 0.294909 0.717260
vt 0.238516 0.717260
vt 0.294909 0.773653
vt 0.238516 0.773653
vt 0.294909 0.830046
vt 0.238516 0.830046
vt 0.351301 0.604475
vt 0.351301 0.660868
vt 0.182123 0.604475
vt 0.182123 0.660868
vn 0.880086 0.000000 0.474815
vn 0.880086 0.000000 0.474815
vn 0.880086 0.000000 0.474815
vn 0.880086 0.000000 0.474815
vn 0.000000 1.000000 0.000000
vn 0.000000 1.000000 0.000000
vn 0.000000 1.000000 0.000000
vn 0.000000 1.000000 0.000000
vn 0.669570 0.000000 -0.742749
vn 0.669570 0.000000 -0.742749
vn 0.669570 0.000000 -0.742749
vn 0.669570 0.000000 -0.742749
vn 0.000000 -1.000000 0.000000
vn 0.000000 -1.000000 0.000000
vn 0.000000 -1.000000 0.000000
vn 0.000000 -1.000000 0.000000
vn -0.656117 0.000000 -0.754659
vn -0.656117 0.000000 -0.754659
vn -0.656117 0.000000 -0.754659
vn -0.656117 0.000000 -0.754659
vn -0.884379 0.000000 0.466770
vn -0.884379 0.000000 0.466770
vn -0.884379 0.000000 0.466770
vn -0.884379 0.000000 0.466770
s off
g yazirusi:pCube1
usemtl lambert3SG
f 1/1/1 2/2/2 4/3/3 3/4/4
f 3/4/5 4/3/6 6/5/7 5/6/8
f 5/6/9 6/5/10 8/7/11 7/8/12
f 7/8/13 8/7/14 2/9/15 1/10/16
f 2/2/17 8/11/18 6/12/19 4/3/20
f 7/13/21 1/1/22 3/4/23 5/14/24
g default
v -0.128669 -0.200000 0.526954
v 0.128669 -0.200000 0.526954
v -0.128669 0.200000 0.526954
v 0.128669 0.200000 0.526954
v -0.128669 0.200000 -0.684443
v 0.128669 0.200000 -0.684443
v -0.128669 -0.200000 -0.684443
v 0.128669 -0.200000 -0.684443
vt 0.232215 0.566804
vt 0.294087 0.566804
vt 0.294087 0.628676
vt 0.232215 0.628676
vt 0.294087 0.690548
vt 0.232215 0.690548
vt 0.294087 0.752420
vt 0.232215 0.752420
vt 0.294087 0.814292
vt 0.232215 0.814292
vt 0.355959 0.566804
vt 0.355959 0.628676
vt 0.170342 0.566804
vt 0.170342 0.628676
vn 0.000000 0.000000 1.000000
vn 0.000000 0.000000 1.000000
vn 0.000000 0.000000 1.000000
vn 0.000000 0.000000 1.000000
vn 0.000000 1.000000 0.000000
vn 0.000000 1.000000 0.000000
vn 0.000000 1.000000 0.000000
vn 0.000000 1.000000 0.000000
vn 0.000000 0.000000 -1.000000
vn 0.000000 0.000000 -1.000000
vn 0.000000 0.000000 -1.000000
vn 0.000000 0.000000 -1.000000
vn 0.000000 -1.000000 0.000000
vn 0.000000 -1.000000 0.000000
vn 0.000000 -1.000000 0.000000
vn 0.000000 -1.000000 0.000000
vn 1.000000 0.000000 0.000000
vn 1.000000 0.000000 0.000000
vn 1.000000 0.000000 0.000000
vn 1.000000 0.000000 0.000000
vn -1.000000 0.000000 0.000000
vn -1.000000 0.000000 0.000000
vn -1.000000 0.000000 0.000000
vn -1.000000 0.000000 0.000000
s off
g yazirusi:pCube2
usemtl lambert3SG
f 9/15/25 10/16/26 12/17/27 11/18/28
f 11/18/29 12/17/30 14/19/31 13/20/32
f 13/20/33 14/19/34 16/21/35 15/22/36
f 15/22/37 16/21/38 10/23/39 9/24/40
f 10/16/41 16/25/42 14/26/43 12/17/44
f 15/27/45 9/15/46 11/18/47 13/28/48
