# This file uses centimeters as units for non-parametric coordinates.

mtllib fensu.mtl
g default
v -0.500000 1.000000 -0.016008
v -0.333333 1.000000 -0.016008
v -0.166667 1.000000 -0.016008
v 0.000000 1.000000 -0.016008
v 0.166667 1.000000 -0.016008
v 0.333333 1.000000 -0.016008
v 0.500000 1.000000 -0.016008
v -0.500000 -0.000000 -0.016008
v -0.333333 -0.000000 -0.016008
v -0.166667 -0.000000 -0.016008
v 0.000000 -0.000000 -0.016008
v 0.166667 -0.000000 -0.016008
v 0.333333 -0.000000 -0.016008
v 0.500000 -0.000000 -0.016008
v 0.350000 1.000000 0.000000
v 0.350000 -0.000000 0.000000
v 0.316667 1.000000 0.000000
v 0.316667 -0.000000 0.000000
v 0.181667 1.000000 0.000000
v 0.181667 -0.000000 0.000000
v 0.150000 1.000000 0.000000
v 0.150000 -0.000000 0.000000
v 0.485000 1.000000 0.000000
v 0.485000 -0.000000 0.000000
v 0.015000 1.000000 0.000000
v 0.015000 -0.000000 0.000000
v -0.016667 1.000000 0.000000
v -0.016667 -0.000000 0.000000
v -0.151667 1.000000 0.000000
v -0.151667 -0.000000 0.000000
v -0.183333 1.000000 0.000000
v -0.183333 -0.000000 0.000000
v -0.318333 1.000000 0.000000
v -0.318333 -0.000000 0.000000
v -0.350000 1.000000 0.000000
v -0.350000 -0.000000 0.000000
v -0.485000 1.000000 0.000000
v -0.485000 -0.000000 0.000000
vt 0.336901 0.998008
vt 0.336901 0.001992
vt 0.471363 0.001992
vt 0.471363 0.998008
vt 0.337903 0.998008
vt 0.337903 0.001992
vt 0.472365 0.001992
vt 0.472365 0.998008
vt 0.339050 0.998008
vt 0.339050 0.001992
vt 0.473512 0.001992
vt 0.473512 0.998008
vt 0.337693 0.998008
vt 0.337693 0.001992
vt 0.472155 0.001992
vt 0.472155 0.998008
vt 0.341827 0.998008
vt 0.341827 0.001992
vt 0.476289 0.001992
vt 0.476289 0.998008
vt 0.337870 0.998008
vt 0.337870 0.001992
vt 0.472332 0.001992
vt 0.472332 0.998008
vt 0.675635 1.000841
vt 0.671815 1.000841
vt 0.671815 0.004825
vt 0.675635 0.004825
vt 0.680918 1.000841
vt 0.677097 1.000841
vt 0.677097 0.004825
vt 0.680918 0.004825
vt 0.677097 0.004825
vt 0.677097 1.000841
vt 0.686157 1.000841
vt 0.682336 1.000841
vt 0.682336 0.004825
vt 0.686157 0.004825
vt 0.682336 0.004825
vt 0.682336 1.000841
vt 0.691395 1.000841
vt 0.687575 1.000841
vt 0.687575 0.004825
vt 0.691395 0.004825
vt 0.687575 0.004825
vt 0.687575 1.000841
vt 0.696634 1.000841
vt 0.692814 1.000841
vt 0.692814 0.004825
vt 0.696634 0.004825
vt 0.692814 0.004825
vt 0.692814 1.000841
vt 0.701873 1.000841
vt 0.698053 1.000841
vt 0.698053 0.004825
vt 0.701873 0.004825
vt 0.698053 0.004825
vt 0.698053 1.000841
vt 0.703292 1.000841
vt 0.703292 0.004825
vt 0.707112 0.004825
vt 0.707112 1.000841
vn 0.729698 0.000000 -0.683770
vn 0.106114 0.000000 -0.994354
vn 0.106114 0.000000 -0.994354
vn 0.729698 0.000000 -0.683770
vn -0.000000 0.000000 -1.000000
vn 0.106114 0.000000 -0.994354
vn 0.106114 0.000000 -0.994354
vn -0.000000 0.000000 -1.000000
vn 0.000000 0.000000 -1.000000
vn 0.106114 0.000000 -0.994354
vn 0.106114 0.000000 -0.994354
vn 0.000000 0.000000 -1.000000
vn 0.000000 0.000000 -1.000000
vn 0.106114 0.000000 -0.994354
vn 0.106114 0.000000 -0.994354
vn 0.000000 0.000000 -1.000000
vn 0.000000 0.000000 -1.000000
vn 0.106114 0.000000 -0.994354
vn 0.106114 0.000000 -0.994354
vn 0.000000 0.000000 -1.000000
vn 0.000000 0.000000 -1.000000
vn 0.104961 0.000000 -0.994476
vn 0.104961 0.000000 -0.994476
vn 0.000000 0.000000 -1.000000
vn -0.106114 0.000000 -0.994354
vn -0.106114 0.000000 -0.994354
vn -0.104961 0.000000 -0.994476
vn -0.104961 0.000000 -0.994476
vn -0.104961 0.000000 -0.994476
vn -0.104961 0.000000 -0.994476
vn -0.729698 0.000000 -0.683769
vn -0.729698 0.000000 -0.683769
vn -0.104961 0.000000 -0.994476
vn -0.104961 0.000000 -0.994476
vn -0.104961 0.000000 -0.994476
vn -0.104961 0.000000 -0.994476
vn -0.104961 0.000000 -0.994476
vn -0.104961 0.000000 -0.994476
s 1
g pPlane1
usemtl lambert2SG
f 1/25/1 37/26/2 38/27/3 8/28/4
f 2/29/5 33/30/6 34/31/7 9/32/8
f 3/35/9 29/36/10 30/37/11 10/38/12
f 4/41/13 25/42/14 26/43/15 11/44/16
f 5/47/17 19/48/18 20/49/19 12/50/20
f 6/53/21 15/54/22 16/55/23 13/56/24
usemtl lambert3SG
f 16/1/23 15/2/22 23/3/25 24/4/26
usemtl lambert2SG
f 18/57/27 17/58/28 6/53/21 13/56/24
usemtl lambert3SG
f 20/5/19 19/6/18 17/7/28 18/8/27
usemtl lambert2SG
f 22/51/29 21/52/30 5/47/17 12/50/20
f 24/59/26 23/60/25 7/61/31 14/62/32
usemtl lambert3SG
f 26/9/15 25/10/14 21/11/30 22/12/29
usemtl lambert2SG
f 28/45/33 27/46/34 4/41/13 11/44/16
usemtl lambert3SG
f 30/13/11 29/14/10 27/15/34 28/16/33
usemtl lambert2SG
f 32/39/35 31/40/36 3/35/9 10/38/12
usemtl lambert3SG
f 34/17/7 33/18/6 31/19/36 32/20/35
usemtl lambert2SG
f 36/33/37 35/34/38 2/29/5 9/32/8
usemtl lambert3SG
f 38/21/3 37/22/2 35/23/38 36/24/37
g default
v 0.500000 0.959106 0.003454
v 0.500000 0.939686 0.003454
v 0.500000 0.929975 0.020272
v 0.500000 0.939686 0.037091
v 0.500000 0.959106 0.037091
v 0.500000 0.968816 0.020272
v -0.500000 0.959106 0.003454
v -0.500000 0.939686 0.003454
v -0.500000 0.929975 0.020272
v -0.500000 0.939686 0.037091
v -0.500000 0.959106 0.037091
v -0.500000 0.968816 0.020272
v 0.500000 0.949396 0.020272
v -0.500000 0.949396 0.020272
vt 0.939584 0.438219
vt 0.919434 0.438219
vt 0.909359 0.455670
vt 0.919434 0.473120
vt 0.939584 0.473120
vt 0.949659 0.455670
vt 0.913389 0.475820
vt 0.918763 0.475820
vt 0.924136 0.475820
vt 0.929509 0.475820
vt 0.934883 0.475820
vt 0.940256 0.475820
vt 0.945629 0.475820
vt 0.913389 0.524301
vt 0.918763 0.524301
vt 0.924136 0.524301
vt 0.929509 0.524301
vt 0.934883 0.524301
vt 0.940256 0.524301
vt 0.945629 0.524301
vt 0.939584 0.526880
vt 0.919434 0.526880
vt 0.909359 0.544330
vt 0.919434 0.561781
vt 0.939584 0.561781
vt 0.949659 0.544330
vt 0.929509 0.454864
vt 0.929509 0.543524
vn 0.000000 0.000000 -1.000000
vn 0.000000 0.000000 -1.000000
vn 0.000000 0.000000 -1.000000
vn 0.000000 0.000000 -1.000000
vn -0.000000 -0.866025 -0.500000
vn -0.000000 -0.866025 -0.500000
vn -0.000000 -0.866025 -0.500000
vn -0.000000 -0.866025 -0.500000
vn 0.000000 -0.866025 0.500000
vn 0.000000 -0.866025 0.500000
vn 0.000000 -0.866025 0.500000
vn 0.000000 -0.866025 0.500000
vn 0.000000 -0.000000 1.000000
vn 0.000000 -0.000000 1.000000
vn 0.000000 -0.000000 1.000000
vn 0.000000 -0.000000 1.000000
vn 0.000000 0.866025 0.500000
vn 0.000000 0.866025 0.500000
vn 0.000000 0.866025 0.500000
vn 0.000000 0.866025 0.500000
vn 0.000000 0.866026 -0.500000
vn 0.000000 0.866026 -0.500000
vn 0.000000 0.866026 -0.500000
vn 0.000000 0.866026 -0.500000
vn 1.000000 0.000000 0.000000
vn 1.000000 0.000000 -0.000001
vn 1.000000 -0.000000 0.000000
vn 1.000000 -0.000000 0.000001
vn 1.000000 -0.000000 0.000002
vn 1.000000 -0.000000 0.000001
vn 1.000000 0.000000 -0.000001
vn -1.000000 0.000000 0.000000
vn -1.000000 0.000000 0.000000
vn -1.000000 -0.000000 0.000000
vn -1.000000 0.000000 0.000000
vn -1.000000 -0.000000 0.000001
vn -1.000000 -0.000000 0.000001
vn -1.000000 0.000000 0.000000
s off
g pCylinder1
usemtl lambert2SG
f 39/69/39 40/70/40 46/77/41 45/76/42
f 40/70/43 41/71/44 47/78/45 46/77/46
f 41/71/47 42/72/48 48/79/49 47/78/50
f 42/72/51 43/73/52 49/80/53 48/79/54
f 43/73/55 44/74/56 50/81/57 49/80/58
f 44/74/59 39/75/60 45/82/61 50/81/62
s 1
f 40/64/63 39/63/64 51/89/65
f 41/65/66 40/64/63 51/89/65
f 42/66/67 41/65/66 51/89/65
f 43/67/68 42/66/67 51/89/65
f 44/68/69 43/67/68 51/89/65
f 39/63/64 44/68/69 51/89/65
s 2
f 45/87/70 46/86/71 52/90/72
f 46/86/71 47/85/73 52/90/72
f 47/85/73 48/84/74 52/90/72
f 48/84/74 49/83/75 52/90/72
f 49/83/75 50/88/76 52/90/72
f 50/88/76 45/87/70 52/90/72
g default
v 0.008050 0.000000 0.034291
v -0.011371 0.000000 0.034291
v -0.021081 0.000000 0.051110
v -0.011371 0.000000 0.067928
v 0.008050 0.000000 0.067928
v 0.017760 0.000000 0.051110
v 0.008050 1.219110 0.034291
v -0.011371 1.219110 0.034291
v -0.021081 1.219110 0.051110
v -0.011371 1.219110 0.067928
v 0.008050 1.219110 0.067928
v 0.017760 1.219110 0.051110
v -0.001660 0.000000 0.051110
v -0.001660 1.219110 0.051110
vt 0.939584 0.438219
vt 0.919434 0.438219
vt 0.909359 0.455670
vt 0.919434 0.473120
vt 0.939584 0.473120
vt 0.949659 0.455670
vt 0.913389 0.475820
vt 0.918763 0.475820
vt 0.924136 0.475820
vt 0.929509 0.475820
vt 0.934883 0.475820
vt 0.940256 0.475820
vt 0.945629 0.475820
vt 0.913389 0.524301
vt 0.918763 0.524301
vt 0.924136 0.524301
vt 0.929509 0.524301
vt 0.934883 0.524301
vt 0.940256 0.524301
vt 0.945629 0.524301
vt 0.939584 0.526880
vt 0.919434 0.526880
vt 0.909359 0.544330
vt 0.919434 0.561781
vt 0.939584 0.561781
vt 0.949659 0.544330
vt 0.929509 0.454864
vt 0.929509 0.543524
vn 0.000000 0.000000 -1.000000
vn 0.000000 0.000000 -1.000000
vn 0.000000 0.000000 -1.000000
vn 0.000000 0.000000 -1.000000
vn -0.866025 0.000000 -0.500000
vn -0.866025 0.000000 -0.500000
vn -0.866025 0.000000 -0.500000
vn -0.866025 0.000000 -0.500000
vn -0.866025 -0.000000 0.500000
vn -0.866025 -0.000000 0.500000
vn -0.866025 -0.000000 0.500000
vn -0.866025 -0.000000 0.500000
vn -0.000000 -0.000000 1.000000
vn -0.000000 -0.000000 1.000000
vn -0.000000 -0.000000 1.000000
vn -0.000000 -0.000000 1.000000
vn 0.866025 -0.000000 0.500000
vn 0.866025 -0.000000 0.500000
vn 0.866025 -0.000000 0.500000
vn 0.866025 -0.000000 0.500000
vn 0.866026 0.000000 -0.500000
vn 0.866026 0.000000 -0.500000
vn 0.866026 0.000000 -0.500000
vn 0.866026 0.000000 -0.500000
vn 0.000000 -1.000000 0.000000
vn 0.000000 -1.000000 -0.000001
vn 0.000000 -1.000000 0.000000
vn 0.000000 -1.000000 0.000001
vn 0.000000 -1.000000 0.000002
vn 0.000000 -1.000000 0.000001
vn 0.000000 -1.000000 -0.000001
vn 0.000000 1.000000 -0.000000
vn 0.000000 1.000000 -0.000000
vn 0.000000 1.000000 0.000000
vn 0.000000 1.000000 -0.000000
vn 0.000000 1.000000 0.000001
vn 0.000000 1.000000 0.000001
vn 0.000000 1.000000 -0.000000
s off
g pCylinder2
usemtl lambert2SG
f 53/97/77 54/98/78 60/105/79 59/104/80
f 54/98/81 55/99/82 61/106/83 60/105/84
f 55/99/85 56/100/86 62/107/87 61/106/88
f 56/100/89 57/101/90 63/108/91 62/107/92
f 57/101/93 58/102/94 64/109/95 63/108/96
f 58/102/97 53/103/98 59/110/99 64/109/100
s 1
f 54/92/101 53/91/102 65/117/103
f 55/93/104 54/92/101 65/117/103
f 56/94/105 55/93/104 65/117/103
f 57/95/106 56/94/105 65/117/103
f 58/96/107 57/95/106 65/117/103
f 53/91/102 58/96/107 65/117/103
s 2
f 59/115/108 60/114/109 66/118/110
f 60/114/109 61/113/111 66/118/110
f 61/113/111 62/112/112 66/118/110
f 62/112/112 63/111/113 66/118/110
f 63/111/113 64/116/114 66/118/110
f 64/116/114 59/115/108 66/118/110
g default
v -0.024449 0.915760 0.074597
v 0.061969 0.915760 0.074597
v -0.024449 0.992168 0.065647
v 0.061969 0.992168 0.065647
v -0.024449 0.972052 0.007777
v 0.061969 0.972052 0.007777
v -0.024449 0.895643 0.034337
v 0.061969 0.895643 0.034337
v -0.024449 0.951220 0.073271
v -0.024449 0.918566 0.026369
v 0.061969 0.918566 0.026369
v 0.061969 0.951220 0.073271
vt 0.913389 0.435520
vt 0.945629 0.435520
vt 0.913389 0.467760
vt 0.945629 0.467760
vt 0.913389 0.500000
vt 0.945629 0.500000
vt 0.913389 0.532240
vt 0.945629 0.532240
vt 0.913389 0.564480
vt 0.945629 0.564480
vt 0.977870 0.435520
vt 0.977870 0.467760
vt 0.881149 0.435520
vt 0.881149 0.467760
vt 0.913389 0.445192
vt 0.881149 0.445192
vt 0.913389 0.522568
vt 0.945629 0.522568
vt 0.977870 0.445192
vt 0.945629 0.445192
vn 0.000000 0.037372 0.999301
vn 0.000000 0.037372 0.999301
vn 0.000000 0.116340 0.993209
vn 0.000000 0.116340 0.993209
vn 0.000000 0.944559 -0.328341
vn 0.000000 0.944559 -0.328341
vn 0.000000 0.944559 -0.328341
vn 0.000000 0.944559 -0.328341
vn 0.000000 -0.328341 -0.944559
vn 0.000000 -0.328341 -0.944559
vn 0.000000 -0.328341 -0.944559
vn 0.000000 -0.328341 -0.944559
vn 0.000000 -0.894547 0.446974
vn 0.000000 -0.894547 0.446974
vn 0.000000 -0.894547 0.446974
vn 0.000000 -0.894547 0.446974
vn 1.000000 0.000000 -0.000000
vn 1.000000 -0.000000 0.000000
vn 1.000000 0.000000 0.000000
vn -1.000000 0.000000 0.000000
vn -1.000000 0.000000 0.000000
vn -1.000000 0.000000 0.000000
vn -1.000000 0.000000 0.000000
vn -1.000000 0.000000 0.000000
vn 0.000000 -0.328341 -0.944559
vn 0.000000 -0.328341 -0.944559
vn 1.000000 0.000000 -0.000000
vn 0.000000 0.183040 0.983105
vn 0.000000 0.183040 0.983105
vn 1.000000 -0.000000 0.000000
vn 1.000000 0.000000 -0.000000
vn -1.000000 0.000000 0.000000
s 1
g pCube1
usemtl lambert2SG
f 67/119/115 68/120/116 78/138/117 75/133/118
s off
f 69/121/119 70/122/120 72/124/121 71/123/122
s 2
f 76/135/123 77/136/124 74/126/125 73/125/126
s off
f 73/125/127 74/126/128 68/128/129 67/127/130
s 3
f 78/138/131 74/129/132 77/137/133
s 4
f 73/131/134 67/119/135 75/133/136
f 76/134/137 75/133/136 69/121/138
s 2
f 71/123/139 72/124/140 77/136/124 76/135/123
s 3
f 78/138/131 77/137/133 72/130/141
s 1
f 75/133/118 78/138/117 70/122/142 69/121/143
s 4
f 73/131/134 75/133/136 76/134/137
s 3
f 68/120/144 74/129/132 78/138/131
f 78/138/131 72/130/141 70/122/145
s 4
f 76/134/137 69/121/138 71/132/146
g default
v 0.042025 0.000000 0.334610
v 0.022605 0.000000 0.334610
v 0.012895 0.005019 0.350662
v 0.022605 0.010037 0.366714
v 0.042025 0.010037 0.366714
v 0.051736 0.005019 0.350662
v 0.042025 0.976392 0.029351
v 0.022605 0.976392 0.029351
v 0.012895 0.981410 0.045403
v 0.022605 0.986429 0.061456
v 0.042025 0.986429 0.061456
v 0.051736 0.981410 0.045404
v 0.032315 0.005019 0.350662
v 0.032315 0.981410 0.045404
vt 0.939584 0.438219
vt 0.919434 0.438219
vt 0.909359 0.455670
vt 0.919434 0.473120
vt 0.939584 0.473120
vt 0.949659 0.455670
vt 0.913389 0.475820
vt 0.918763 0.475820
vt 0.924136 0.475820
vt 0.929509 0.475820
vt 0.934883 0.475820
vt 0.940256 0.475820
vt 0.945629 0.475820
vt 0.913389 0.524301
vt 0.918763 0.524301
vt 0.924136 0.524301
vt 0.929509 0.524301
vt 0.934883 0.524301
vt 0.940256 0.524301
vt 0.945629 0.524301
vt 0.939584 0.526880
vt 0.919434 0.526880
vt 0.909359 0.544330
vt 0.919434 0.561781
vt 0.939584 0.561781
vt 0.949659 0.544330
vt 0.929509 0.454864
vt 0.929509 0.543524
vn 0.000000 -0.298396 -0.954442
vn 0.000000 -0.298396 -0.954442
vn 0.000000 -0.298396 -0.954442
vn 0.000000 -0.298396 -0.954442
vn -0.866025 -0.149198 -0.477221
vn -0.866025 -0.149198 -0.477221
vn -0.866025 -0.149198 -0.477221
vn -0.866025 -0.149198 -0.477221
vn -0.866025 0.149198 0.477221
vn -0.866025 0.149198 0.477221
vn -0.866025 0.149198 0.477221
vn -0.866025 0.149198 0.477221
vn -0.000000 0.298396 0.954442
vn -0.000000 0.298396 0.954442
vn -0.000000 0.298396 0.954442
vn -0.000000 0.298396 0.954442
vn 0.866025 0.149198 0.477221
vn 0.866025 0.149198 0.477221
vn 0.866025 0.149198 0.477221
vn 0.866025 0.149198 0.477221
vn 0.866026 -0.149198 -0.477221
vn 0.866026 -0.149198 -0.477221
vn 0.866026 -0.149198 -0.477221
vn 0.866026 -0.149198 -0.477221
vn 0.000000 -0.954442 0.298396
vn 0.000000 -0.954442 0.298395
vn 0.000000 -0.954442 0.298396
vn 0.000000 -0.954442 0.298397
vn 0.000000 -0.954441 0.298398
vn 0.000000 -0.954442 0.298397
vn 0.000000 -0.954442 0.298395
vn -0.000000 0.954442 -0.298396
vn -0.000000 0.954442 -0.298396
vn -0.000000 0.954442 -0.298396
vn -0.000000 0.954442 -0.298396
vn -0.000000 0.954442 -0.298395
vn -0.000000 0.954442 -0.298395
vn -0.000000 0.954442 -0.298396
s off
g pCylinder3
usemtl lambert2SG
f 79/145/147 80/146/148 86/153/149 85/152/150
f 80/146/151 81/147/152 87/154/153 86/153/154
f 81/147/155 82/148/156 88/155/157 87/154/158
f 82/148/159 83/149/160 89/156/161 88/155/162
f 83/149/163 84/150/164 90/157/165 89/156/166
f 84/150/167 79/151/168 85/158/169 90/157/170
s 1
f 80/140/171 79/139/172 91/165/173
f 81/141/174 80/140/171 91/165/173
f 82/142/175 81/141/174 91/165/173
f 83/143/176 82/142/175 91/165/173
f 84/144/177 83/143/176 91/165/173
f 79/139/172 84/144/177 91/165/173
s 2
f 85/163/178 86/162/179 92/166/180
f 86/162/179 87/161/181 92/166/180
f 87/161/181 88/160/182 92/166/180
f 88/160/182 89/159/183 92/166/180
f 89/159/183 90/164/184 92/166/180
f 90/164/184 85/163/178 92/166/180
g default
v 0.008050 0.000000 0.274784
v -0.011371 0.000000 0.274784
v -0.021081 0.000000 0.291602
v -0.011371 0.000000 0.308421
v 0.008050 0.000000 0.308421
v 0.017760 0.000000 0.291602
v 0.008050 0.253585 0.274784
v -0.011371 0.253585 0.274784
v -0.021081 0.253585 0.291602
v -0.011371 0.253585 0.308421
v 0.008050 0.253585 0.308421
v 0.017760 0.253585 0.291602
v -0.001660 0.000000 0.291602
v -0.001660 0.253585 0.291602
vt 0.939584 0.438219
vt 0.919434 0.438219
vt 0.909359 0.455670
vt 0.919434 0.473120
vt 0.939584 0.473120
vt 0.949659 0.455670
vt 0.913389 0.475820
vt 0.918763 0.475820
vt 0.924136 0.475820
vt 0.929509 0.475820
vt 0.934883 0.475820
vt 0.940256 0.475820
vt 0.945629 0.475820
vt 0.913389 0.524301
vt 0.918763 0.524301
vt 0.924136 0.524301
vt 0.929509 0.524301
vt 0.934883 0.524301
vt 0.940256 0.524301
vt 0.945629 0.524301
vt 0.939584 0.526880
vt 0.919434 0.526880
vt 0.909359 0.544330
vt 0.919434 0.561781
vt 0.939584 0.561781
vt 0.949659 0.544330
vt 0.929509 0.454864
vt 0.929509 0.543524
vn 0.000000 0.000000 -1.000000
vn 0.000000 0.000000 -1.000000
vn 0.000000 0.000000 -1.000000
vn 0.000000 0.000000 -1.000000
vn -0.866025 0.000000 -0.500000
vn -0.866025 0.000000 -0.500000
vn -0.866025 0.000000 -0.500000
vn -0.866025 0.000000 -0.500000
vn -0.866025 -0.000000 0.500000
vn -0.866025 -0.000000 0.500000
vn -0.866025 -0.000000 0.500000
vn -0.866025 -0.000000 0.500000
vn -0.000000 -0.000000 1.000000
vn -0.000000 -0.000000 1.000000
vn -0.000000 -0.000000 1.000000
vn -0.000000 -0.000000 1.000000
vn 0.866025 -0.000000 0.500000
vn 0.866025 -0.000000 0.500000
vn 0.866025 -0.000000 0.500000
vn 0.866025 -0.000000 0.500000
vn 0.866026 0.000000 -0.500000
vn 0.866026 0.000000 -0.500000
vn 0.866026 0.000000 -0.500000
vn 0.866026 0.000000 -0.500000
vn 0.000000 -1.000000 0.000000
vn 0.000000 -1.000000 -0.000000
vn 0.000000 -1.000000 0.000000
vn 0.000000 -1.000000 0.000000
vn 0.000000 -1.000000 0.000001
vn 0.000000 -1.000000 0.000000
vn 0.000000 -1.000000 -0.000000
vn 0.000000 1.000000 0.000000
vn 0.000000 1.000000 0.000000
vn 0.000000 1.000000 0.000000
vn 0.000000 1.000000 0.000000
vn 0.000000 1.000000 0.000000
vn 0.000000 1.000000 0.000000
vn 0.000000 1.000000 0.000000
s off
g pCylinder4
usemtl lambert2SG
f 93/173/185 94/174/186 100/181/187 99/180/188
f 94/174/189 95/175/190 101/182/191 100/181/192
f 95/175/193 96/176/194 102/183/195 101/182/196
f 96/176/197 97/177/198 103/184/199 102/183/200
f 97/177/201 98/178/202 104/185/203 103/184/204
f 98/178/205 93/179/206 99/186/207 104/185/208
s 1
f 94/168/209 93/167/210 105/193/211
f 95/169/212 94/168/209 105/193/211
f 96/170/213 95/169/212 105/193/211
f 97/171/214 96/170/213 105/193/211
f 98/172/215 97/171/214 105/193/211
f 93/167/210 98/172/215 105/193/211
s 2
f 99/191/216 100/190/217 106/194/218
f 100/190/217 101/189/219 106/194/218
f 101/189/219 102/188/220 106/194/218
f 102/188/220 103/187/221 106/194/218
f 103/187/221 104/192/222 106/194/218
f 104/192/222 99/191/216 106/194/218
g default
v -0.022621 0.147126 0.329576
v -0.042041 0.147126 0.329576
v -0.051751 0.163945 0.329576
v -0.042041 0.180763 0.329576
v -0.022621 0.180763 0.329576
v -0.012911 0.163945 0.329576
v -0.022621 0.147126 0.025260
v -0.042041 0.147126 0.025260
v -0.051751 0.163945 0.025260
v -0.042041 0.180763 0.025260
v -0.022621 0.180763 0.025260
v -0.012911 0.163945 0.025260
v -0.032331 0.163945 0.329576
v -0.032331 0.163945 0.025260
vt 0.939584 0.438219
vt 0.919434 0.438219
vt 0.909359 0.455670
vt 0.919434 0.473120
vt 0.939584 0.473120
vt 0.949659 0.455670
vt 0.913389 0.475820
vt 0.918763 0.475820
vt 0.924136 0.475820
vt 0.929509 0.475820
vt 0.934883 0.475820
vt 0.940256 0.475820
vt 0.945629 0.475820
vt 0.913389 0.524301
vt 0.918763 0.524301
vt 0.924136 0.524301
vt 0.929509 0.524301
vt 0.934883 0.524301
vt 0.940256 0.524301
vt 0.945629 0.524301
vt 0.939584 0.526880
vt 0.919434 0.526880
vt 0.909359 0.544330
vt 0.919434 0.561781
vt 0.939584 0.561781
vt 0.949659 0.544330
vt 0.929509 0.454864
vt 0.929509 0.543524
vn 0.000000 -1.000000 0.000000
vn 0.000000 -1.000000 0.000000
vn 0.000000 -1.000000 0.000000
vn 0.000000 -1.000000 0.000000
vn -0.866025 -0.500000 0.000000
vn -0.866025 -0.500000 0.000000
vn -0.866025 -0.500000 0.000000
vn -0.866025 -0.500000 0.000000
vn -0.866025 0.500000 -0.000000
vn -0.866025 0.500000 -0.000000
vn -0.866025 0.500000 -0.000000
vn -0.866025 0.500000 -0.000000
vn -0.000000 1.000000 -0.000000
vn -0.000000 1.000000 -0.000000
vn -0.000000 1.000000 -0.000000
vn -0.000000 1.000000 -0.000000
vn 0.866025 0.500000 0.000000
vn 0.866025 0.500000 0.000000
vn 0.866025 0.500000 0.000000
vn 0.866025 0.500000 0.000000
vn 0.866026 -0.500000 0.000000
vn 0.866026 -0.500000 0.000000
vn 0.866026 -0.500000 0.000000
vn 0.866026 -0.500000 0.000000
vn 0.000000 0.000000 1.000000
vn 0.000000 -0.000000 1.000000
vn 0.000000 0.000000 1.000000
vn 0.000000 0.000000 1.000000
vn 0.000000 0.000001 1.000000
vn 0.000000 0.000000 1.000000
vn 0.000000 -0.000000 1.000000
vn -0.000000 0.000000 -1.000000
vn -0.000000 0.000000 -1.000000
vn -0.000000 0.000000 -1.000000
vn -0.000000 0.000000 -1.000000
vn -0.000000 0.000000 -1.000000
vn -0.000000 0.000000 -1.000000
vn -0.000000 0.000000 -1.000000
s off
g pCylinder5
usemtl lambert2SG
f 107/201/223 108/202/224 114/209/225 113/208/226
f 108/202/227 109/203/228 115/210/229 114/209/230
f 109/203/231 110/204/232 116/211/233 115/210/234
f 110/204/235 111/205/236 117/212/237 116/211/238
f 111/205/239 112/206/240 118/213/241 117/212/242
f 112/206/243 107/207/244 113/214/245 118/213/246
s 1
f 108/196/247 107/195/248 119/221/249
f 109/197/250 108/196/247 119/221/249
f 110/198/251 109/197/250 119/221/249
f 111/199/252 110/198/251 119/221/249
f 112/200/253 111/199/252 119/221/249
f 107/195/248 112/200/253 119/221/249
s 2
f 113/219/254 114/218/255 120/222/256
f 114/218/255 115/217/257 120/222/256
f 115/217/257 116/216/258 120/222/256
f 116/216/258 117/215/259 120/222/256
f 117/215/259 118/220/260 120/222/256
f 118/220/260 113/219/254 120/222/256
g default
v -0.500000 0.000000 0.007705
v 0.500000 0.000000 0.007705
v -0.500000 1.000000 0.007705
v 0.500000 1.000000 0.007705
vt 0.123146 0.000000
vt 0.152203 0.000000
vt 0.123146 1.000000
vt 0.152203 1.000000
vn 0.000000 0.000000 1.000000
vn 0.000000 0.000000 1.000000
vn 0.000000 0.000000 1.000000
vn 0.000000 0.000000 1.000000
s off
g pPlane2
usemtl lambert2SG
f 121/223/261 122/224/262 124/226/263 123/225/264
